<svg width="500" height="500" xmlns="http://www.w3.org/2000/svg" style="vector-effect: non-scaling-stroke;" stroke="null">
 <g stroke="null" id="Layer_1">
  <title stroke="null">Layer 1</title>
  <path transform="rotate(180 248.091 254.422)" stroke="#000000" id="svg_24" d="m453.18187,138.30093c-137.33335,-129.97668 -271.48495,144.13201 -408.81828,14.15535l-1.36359,217.59486c137.33333,129.97669 269.21228,-139.52181 406.54563,-9.54515l3.63625,-222.20505z" stroke-width="7" fill="#d4aaff"/>
  <path transform="rotate(180 247.5 252.284)" id="svg_8" d="m451.00017,141.26752c-128.24243,-132.75804 -324.21237,153.21259 -407.00017,0.45453l0,222.14625c137.33333,123.66713 269.66681,-123.6671 407.00017,0l0,-222.60078z" stroke-width="0" fill="#aaaaff"/>
  <path transform="rotate(180 248.354 251.08)" stroke="#000000" id="svg_34" d="m453.70808,135.22009c-137.50954,-129.68453 -271.83325,143.80804 -409.34277,14.12352l-1.36534,217.10577c137.50952,129.68454 269.55766,-139.20821 407.0672,-9.5237l3.64091,-221.7056z" stroke-width="6" fill="none"/>
  <path stroke="#000000" id="svg_25" d="m44,143.09247c136.66668,-121.56394 272.42427,123.83658 409.09093,2.27266l0.90906,216.54239c-136.66666,121.56395 -274.14497,-119.58351 -410.81165,1.98041l0.81166,-220.79546z" stroke-width="7" fill="#aad4ff"/>
  <path stroke="#356aa0" id="svg_7" d="m45.00001,143.97104c135.33335,-121.1433 270.66667,121.14329 405.99999,0l0,218.05791c-135.33332,121.14331 -272.2051,-118.06636 -407.53845,3.07692l1.53846,-221.13483z" stroke-width="0" fill="#aad4ff"/>
  <path stroke="#aaffff" id="svg_19" d="m373.4491,164.38189l-53.53293,0l0,-20.88189l-133.83232,0l0,20.88189l-53.53293,0c-15.76009,0 -28.55089,12.47345 -28.55089,27.84252l0,144.43307c0,15.36908 12.7908,27.84252 28.55089,27.84252l240.89818,0c15.7601,0 28.5509,-12.47344 28.5509,-27.84252l0,-144.43307c0,-15.36907 -12.7908,-27.84252 -28.5509,-27.84252zm-120.45623,184.44278c-47.70854,0 -86.50921,-37.85191 -86.50921,-84.37676c0,-46.52485 38.80067,-84.39068 86.50921,-84.39068s86.53777,37.86583 86.53777,84.39068c0,46.52485 -38.8435,84.37676 -86.53777,84.37676zm0,-140.93884c-32.0341,0 -57.98687,25.32277 -57.98687,56.54816c0,31.23931 25.96704,56.54816 57.98687,56.54816c32.03411,0 57.98687,-25.30885 57.98687,-56.54816c0.01428,-31.22539 -25.93849,-56.54816 -57.98687,-56.54816z" stroke-width="0" fill="#333333"/>
  <path stroke="#000000" id="svg_35" d="m44,143.09247c136.66668,-121.56394 272.42427,123.83658 409.09093,2.27265l0.90906,216.5424c-136.66666,121.56394 -274.14497,-119.58351 -410.81165,1.9804l0.81166,-220.79545z" stroke-width="7" fill="#aad4ff"/>
  <path stroke="null" fill-opacity="0.73" id="svg_63" d="m47.07978,144.96315c134.78149,-117.29567 268.28195,124.22365 403.06342,6.92799l0.78093,207.78587c-134.78147,117.29567 -268.86318,-117.46626 -404.64482,-1.67083l0.80046,-213.04303z" stroke-width="7" fill="url(#svg_119)"/>
  <path fill-opacity="0.79" id="svg_60" d="m376.3533,160.23228l-53.71257,0l0,-21.73229l-134.28144,0l0,21.73229l-53.71257,0c-15.81297,0 -28.6467,12.98141 -28.6467,28.97638l0,150.31498c0,15.99498 12.83373,28.97639 28.6467,28.97639l241.70657,0c15.81299,0 28.64671,-12.98141 28.64671,-28.97639l0,-150.31498c0,-15.99497 -12.83372,-28.97638 -28.64671,-28.97638zm-120.86045,191.95405c-47.86863,0 -86.79951,-39.39339 -86.79951,-87.81292c0,-48.41953 38.93088,-87.82742 86.79951,-87.82742s86.82817,39.40789 86.82817,87.82742c0,48.41953 -38.97385,87.81292 -86.82817,87.81292zm0,-146.67845c-32.14159,0 -58.18145,26.35401 -58.18145,58.85103c0,32.5115 26.05417,58.85103 58.18145,58.85103c32.14161,0 58.18146,-26.33953 58.18146,-58.85103c0.01433,-32.49702 -26.02553,-58.85103 -58.18146,-58.85103z" stroke-width="0" fill="url(#svg_57)"/>
  <path stroke="#aaffff" id="svg_1" d="m370.44909,160.38189l-53.53293,0l0,-20.88189l-133.83232,0l0,20.88189l-53.53293,0c-15.76009,0 -28.5509,12.47345 -28.5509,27.84252l0,144.43307c0,15.36907 12.7908,27.84252 28.5509,27.84252l240.89818,0c15.76009,0 28.5509,-12.47345 28.5509,-27.84252l0,-144.43307c0,-15.36907 -12.7908,-27.84252 -28.5509,-27.84252zm-120.45623,184.44277c-47.70855,0 -86.50921,-37.85191 -86.50921,-84.37676c0,-46.52485 38.80067,-84.39068 86.50921,-84.39068s86.53776,37.86583 86.53776,84.39068c0,46.52485 -38.84349,84.37676 -86.53776,84.37676zm0,-140.93883c-32.0341,0 -57.98687,25.32277 -57.98687,56.54816c0,31.23931 25.96704,56.54816 57.98687,56.54816c32.0341,0 57.98687,-25.30885 57.98687,-56.54816c0.01428,-31.22539 -25.93849,-56.54816 -57.98687,-56.54816z" stroke-width="0" fill="url(#svg_18)"/>
  <path stroke="#aaffff" id="svg_3" d="m-126,146.5c0,0 -1,-13 -1,-13c0,0 28,36 28,35.5" opacity="NaN" stroke-width="0" fill="#c4f2f2"/>
  <path stroke="#000000" id="svg_21" d="m370.44909,160.44729l-53.53293,0l0,-20.94731l-133.83232,0l0,20.94731l-53.53293,0c-15.76009,0 -28.55089,12.51253 -28.55089,27.92974l0,144.88553c0,15.41723 12.7908,27.92974 28.55089,27.92974l240.89818,0c15.7601,0 28.5509,-12.51252 28.5509,-27.92974l0,-144.88553c0,-15.41722 -12.7908,-27.92974 -28.5509,-27.92974zm-120.45623,185.02058c-47.70854,0 -86.50921,-37.97049 -86.50921,-84.64109c0,-46.6706 38.80067,-84.65505 86.50921,-84.65505s86.53777,37.98445 86.53777,84.65505c0,46.6706 -38.8435,84.64109 -86.53777,84.64109zm0,-141.38036c-32.0341,0 -57.98687,25.4021 -57.98687,56.72531c0,31.33717 25.96704,56.72531 57.98687,56.72531c32.03411,0 57.98687,-25.38813 57.98687,-56.72531c0.01428,-31.32321 -25.93849,-56.72531 -57.98687,-56.72531z" stroke-width="3" fill="none"/>
  <path stroke="#000000" id="svg_5" d="m693,244.42985c-49.43007,0 -89.50001,40.96536 -89.50001,91.50001c0,50.53465 40.06994,91.50001 89.50001,91.50001c49.43007,0 89.50001,-40.96536 89.50001,-91.50001c0,-50.53465 -40.06994,-91.50001 -89.50001,-91.50001zm19.44689,137.2626c-0.48648,0.40292 -1.12691,0.81843 -0.64659,1.30319c0.48032,0.49106 -0.55422,0.82472 -0.55422,1.07025s0.64043,1.54871 0.32021,2.11532c-0.32021,0.57919 -0.56038,1.40392 -0.80054,1.89497c-0.24016,0.48476 -0.80669,0.97582 -0.64043,1.7124c0.15395,0.73029 -0.64043,0.48476 -0.64043,1.22134c0,0.73029 0.71433,0.40921 0.55422,1.30948c-0.15395,0.90656 -0.55422,1.15209 -0.55422,1.79424c0,0.65474 0.39411,1.55501 0.39411,1.80054s-0.39411,1.07025 -0.95449,1.7124c-0.56653,0.65474 -0.95449,1.07025 -0.88675,1.46687c0.08621,0.40921 0.64043,0.90656 0.56038,1.15839c-0.08005,0.23294 -0.79438,1.05766 -0.71433,1.63056c0.08621,0.5666 0.79438,0.33367 0.95449,0.73029c0.16011,0.40921 -0.95449,0.74288 -0.48032,1.15209c0.48032,0.40292 1.12691,0.32107 0.96064,1.30948c-0.117,0.70511 0.39411,1.02618 0.7759,1.24653c-5.48676,1.39132 -11.1952,2.21605 -17.1007,2.21605c-39.16472,0 -71.01993,-32.56705 -71.01993,-72.60696c0,-13.05074 3.42999,-25.27677 9.34781,-35.86594c0.48648,-0.26441 0.84364,-0.4344 1.05301,-0.39033c0.40027,0.08184 0.48648,0.65474 1.12691,0.81843c0.64043,0.16369 1.20081,-0.49106 1.60107,-0.73658c0.39411,-0.24553 0.71433,-1.22764 0.31406,-1.1458c-0.40027,0.08184 -1.44097,0 -1.44097,0s1.12691,-0.65474 1.12691,-1.06395s0.15395,-1.06395 0.79438,-1.30948c0.63427,-0.25182 0.63427,-0.08814 0.234,0.89397c-0.40027,0.98211 0.80669,0.5729 1.28086,0.16369s0.80054,-0.08184 1.67497,-0.65474c0.88059,-0.5729 0.88059,-0.90027 1.36091,-0.90027c0.48032,0 1.36091,0.90027 1.84123,0.5729c0.47416,-0.32737 1.84123,0.40921 2.64177,0.40921c0.79438,0 3.3561,1.06395 3.84258,1.06395c0.48032,0 1.92129,0.5666 2.00134,1.63056c0.08005,1.06395 0.55422,0.98211 1.03454,0.98211s1.60107,0.40921 1.60107,0.81843c0,0.40921 -0.32021,2.04606 0.48032,2.45528c0.79438,0.40292 1.52102,1.06395 1.84123,0.90027c0.32021,-0.16369 0,-1.46687 -0.39411,-1.63685c-0.40027,-0.16369 -0.16627,-0.73658 -0.32021,-1.06395c-0.16011,-0.32107 0.48032,-0.32107 0.72048,0.24553c0.24016,0.5729 0.88059,1.63685 1.28086,1.63685c0.39411,0 1.28086,0.98211 1.03454,1.55501c-0.24016,0.5729 0.24016,1.39132 0.96064,1.39132c0.71433,0 1.60107,1.1458 1.92129,1.22764c0.32021,0.08184 0.72048,0.49106 0.72048,0.73658c0,0.25182 0.40027,1.63685 0.40027,2.20975c0,0.5666 -0.24632,2.85819 -0.32637,3.75846s0.64043,2.45528 1.44097,3.2737c0.79438,0.81843 1.51486,2.37343 1.99518,2.70081c0.48648,0.32737 0.80054,1.22764 1.52102,1.1458c0.72048,-0.08184 1.20081,0.49106 1.84123,1.63685c0.64043,1.1458 1.28086,3.02188 1.76118,3.18557c0.48032,0.16369 1.28086,0.73658 0.87443,1.1458c-0.39411,0.40292 -1.03454,1.30948 -0.31406,1.30948c0.72048,0 0.96064,-0.40921 1.52102,0.33367c0.55422,0.73029 1.28086,1.1395 1.19465,1.63685c-0.08005,0.48476 0.64043,0.64845 0.96064,0.73029c0.32021,0.08184 1.0407,1.55501 1.76118,0.90027c0.72048,-0.65474 -0.95449,-1.63056 -1.44097,-2.05236c-0.48032,-0.40292 0,-1.30319 -1.12075,-2.20345c-1.12075,-0.90027 -0.96064,-1.55501 -1.76118,-2.20975c-0.80054,-0.65474 -1.43481,-1.22764 -0.64043,-1.80054c0.80054,-0.5729 0.88059,0.5729 1.20081,1.30948c0.32021,0.73029 1.99518,2.20975 2.71567,2.85819c0.72048,0.65474 2.0075,2.94633 2.40161,2.94633s1.52102,1.30948 1.52102,1.30948s0.63427,1.05766 0.39411,1.38503c-0.24016,0.32737 0.32637,1.55501 0.88675,1.88238c0.55422,0.32737 2.80188,1.38503 3.12209,1.55501c0.32021,0.16998 0.95449,1.39132 1.84123,1.39132c0.87443,0 1.52102,0.08814 1.76118,0.33367c0.24016,0.23923 0.95449,1.22134 1.44097,0.65474c0.48032,-0.57919 0.55422,-0.82472 1.28086,-0.82472c0.72048,0 1.03454,0.5729 1.43481,0.98211c0.40027,0.40921 1.52102,1.47946 2.0814,1.39762c0.56038,-0.08184 1.28086,0.65474 1.68113,0.40292s1.0407,0.15739 1.35475,0.32737c0.33253,0.16369 1.44097,0.74288 1.36707,1.7124c-0.08005,0.98841 0.63427,1.22764 1.12075,1.47317c0.48032,0.24553 1.12075,0.81843 1.52718,1.22764c0.39411,0.39662 1.26854,0.48476 1.51486,0.73029c0.24016,0.24553 0.40027,0.73658 1.12075,0.32737c0.71433,-0.40292 0.56653,-1.1395 0.56653,-1.1395s0.79438,-0.16369 1.19465,0.16369c0.39411,0.31478 0.64043,1.38503 0.88675,1.54871c0.234,0.16369 0.70817,1.39132 0.38795,2.279c-0.31406,0.91286 -0.234,1.80054 -0.56038,1.80054c-0.32021,0 -0.71433,1.07025 -1.20081,1.31578c-0.46801,0.24553 -1.75502,1.39132 -1.67497,1.80054c0.08005,0.39662 0.80669,1.62426 0.64043,2.20345c-0.15395,0.5729 -1.19465,1.22764 -0.94833,2.12791c0.234,0.90656 1.92129,1.15209 1.98903,1.96422c0.08621,0.82472 1.28702,2.62526 1.44712,3.43739c0.15395,0.81843 1.51486,1.7124 1.51486,2.8519c0,1.15839 1.92129,1.88867 2.32156,1.96422c0.38795,0.08184 1.12075,0.82472 1.67497,1.07025s1.0407,0.73029 1.43481,1.39132s0.32637,1.64315 0.32637,1.88238c0,0.24553 -0.24016,2.77006 -0.48032,4.24322c-0.24632,1.47946 0.3079,2.62526 -0.16627,3.04077zm-51.67773,-76.05694c0.24016,0.08184 0.72048,0.5729 0.96064,0.5729c0.24632,0 1.44097,0.98211 1.76118,1.30948c0.32637,0.32737 0.32637,1.22764 -0.08005,1.30948s-0.64043,-0.90027 -0.72048,-1.30948c-0.08005,-0.40921 -0.88059,-0.40921 -1.28086,-0.65474c-0.40027,-0.24553 -1.29317,-1.45428 -0.64043,-1.22764zm103.10914,32.87554c-0.88675,1.1458 -0.80054,1.7124 -1.20081,1.80054c-0.39411,0.08184 0.40027,0.40921 0.55422,1.22134c0.13548,0.70511 -0.40027,1.41021 0.38795,2.05866c-2.99278,29.0793 -22.84609,53.09695 -49.36233,61.61487c-0.04311,-0.06925 -0.117,-0.15739 -0.12932,-0.21405c-0.16627,-0.49106 -0.16627,-1.46687 0.39411,-1.79424c0.56038,-0.33367 1.92129,-1.46687 2.23534,-1.7124c0.32021,-0.25182 0.80054,-1.39132 0.56038,-1.55501c-0.234,-0.16369 -1.42865,0 -1.60107,-0.24553c-0.16011,-0.24553 -0.16011,-0.57919 0.64043,-1.1458c0.80054,-0.5729 1.20081,-1.39762 1.52102,-1.63685c0.32021,-0.24553 0.95449,-0.73658 1.20081,-1.31578c0.234,-0.5666 -0.25248,-0.24553 -0.72664,-0.24553s-0.72048,-0.89397 -0.72048,-1.30319s1.20081,0.16369 2.08755,0.32737c0.88059,0.15109 0.47416,-0.40921 0.39411,-0.89397c-0.08005,-0.49106 0.16011,-1.31578 0.64659,-1.07025c0.46801,0.24553 2.94967,-0.08184 3.26988,-0.16369c0.32021,-0.08184 1.19465,-1.54871 1.51486,-1.96422c0.32637,-0.40921 0.39411,-0.81213 0,-1.05766c-0.40027,-0.25182 -0.88059,-1.15839 -1.03454,-1.39132c-0.16011,-0.25812 -0.24016,-1.72499 -0.08005,-2.1405c0.15395,-0.39662 0,2.37343 1.11459,2.7071c1.12691,0.32737 1.76118,0.49106 2.80188,-0.49106c1.0407,-0.97582 1.83508,-1.63685 1.92129,-2.2853c0.08005,-0.65474 0.32021,-1.31578 0.72048,-1.54871c0.40027,-0.24553 0.64043,0.64845 1.12075,-0.40921c0.48032,-1.07025 0.96064,-0.98841 1.44097,-1.88238c0.47416,-0.90656 -0.80054,-2.04606 0.14779,-2.7071c0.9668,-0.64845 2.64793,-1.46687 2.64793,-1.46687s0.48032,-0.24553 1.44097,-0.49106c0.95449,-0.23923 1.99518,-0.08814 2.3154,-0.5666c0.32021,-0.49735 0.64043,-1.55501 1.12075,-2.12791c0.48648,-0.57919 1.0407,-1.47317 0.80054,-1.88238c-0.24016,-0.40921 0.64043,-2.21605 0.56038,-2.70081c-0.08005,-0.49106 -0.80054,-1.64315 0.40027,-2.61896s2.47551,-2.46157 2.56172,-2.85819c0.0739,-0.40921 1.0407,-2.12791 0.94833,-2.95263c-0.0739,-0.81213 -0.94833,-1.79424 -1.5087,-2.04606c-0.56653,-0.23294 -1.76118,-0.31478 -2.2415,-0.96952s-1.84123,-1.30948 -2.32156,-1.1458c-0.47416,0.16369 -1.28086,0.32107 -1.92129,-0.09443c-0.64043,-0.39662 -1.67497,-0.90027 -2.07524,-1.22134c-0.40643,-0.32107 -1.44097,-0.5666 -1.92129,-0.5666s-0.40027,-0.33367 -1.12075,0.64845c-0.72048,0.98841 0,1.31578 -1.28086,1.1458c-1.28702,-0.15109 0.15395,-0.23923 0.88675,-1.22134c0.70817,-0.97582 -0.08621,-1.55501 -0.88675,-1.30319c-0.80054,0.24553 -0.24016,0.73658 -1.52102,0.98211c-1.2747,0.23923 -1.2747,-0.57919 -0.47416,-0.73658c0.80054,-0.16369 2.23534,-0.90027 2.23534,-1.22134c0,-0.33367 -0.16011,-1.23393 -0.80054,-1.23393s-0.48032,-0.81213 -1.43481,-1.86979c-0.96064,-1.07025 -2.16145,-1.72499 -3.12825,-1.5676c-0.94833,0.16369 -1.67497,0.40921 -2.15529,-0.47846c-0.48032,-0.90656 -1.0407,-1.07025 -1.36707,-1.55501c-0.31406,-0.49106 -1.12075,0 -1.36091,-0.24553s-0.24016,-0.24553 -0.24016,-0.24553s-1.0407,0.24553 -0.47416,-0.49106c0.55422,-0.73658 0.79438,-2.12791 0.55422,-2.04606c-0.234,0.08184 -0.64043,1.23393 -1.03454,1.15209c-0.39411,-0.08184 -0.08621,-0.25182 -0.88675,-0.73658c-0.80054,-0.49106 -2.07524,-0.08184 -2.07524,0.32737c0,0.40921 -0.40027,0.73658 -0.40027,0.73658s-0.24016,-0.23923 -0.48032,-0.73658c-0.24016,-0.49106 -1.36091,-0.5729 -1.92129,-0.08184c-0.55422,0.49106 -0.87443,-1.23393 -1.2747,-1.23393s-1.19465,0.40921 -1.60107,1.15839c-0.39411,0.73029 -0.234,1.79424 -0.56653,1.7124c-0.3079,-0.08184 -0.38795,-1.46687 -0.3079,-1.96422c0.0739,-0.49735 0.95449,-1.30948 0.3079,-1.47317c-0.63427,-0.16369 -1.59492,0.81843 -1.98903,0.90027c-0.40027,0.08184 -1.20081,0.65474 -1.68113,1.31578c-0.47416,0.64845 -0.71433,1.05766 -1.20081,1.30319c-0.47416,0.24553 -1.18849,0 -1.02838,-0.24553c0.15395,-0.24553 -1.36707,-1.1395 -1.60723,-0.81843c-0.24632,0.32737 -0.95449,0.5729 -1.67497,0.90656c-0.72048,0.32737 -1.36707,-0.40921 -1.52102,-0.73658s-0.48648,-0.40292 -0.56038,-1.47317c-0.08005,-1.05766 0.16627,-2.20975 0.40027,-2.85819c0.234,-0.65474 -1.20081,-1.96422 -1.76118,-1.88867c-0.56038,0.09443 -1.12075,0.66104 -1.67497,0.5729c-0.56653,-0.07555 -0.32021,-0.23923 -1.20081,-0.23923c-0.88059,0 -0.16011,-0.15739 0,-0.90027c0.15395,-0.73029 -0.32021,-1.71869 0.56653,-2.37343c0.87443,-0.65474 0.56038,-2.20975 0,-2.2853c-0.56653,-0.08814 -1.60723,0.24553 -2.32156,0.16369c-0.71433,-0.08814 -1.28086,0.5729 -1.0407,1.30319c0.24016,0.73658 -0.40027,1.22764 -0.64043,1.15209c-0.24016,-0.08184 -0.55422,-0.49106 -1.44097,0.16369c-0.87443,0.64845 -1.19465,0.40292 -2.07524,-0.32737c-0.88059,-0.74288 -1.84123,-1.47317 -2.00134,-2.61896c-0.16011,-1.1458 -0.24632,-2.29159 0.08005,-2.94633c0.31406,-0.65474 0.31406,-1.79424 -0.16011,-1.96422c-0.48032,-0.15739 0.55422,-0.97582 1.11459,-1.1395c0.56653,-0.16369 1.44097,-0.90027 1.60107,-1.22764c0.16011,-0.32737 0.96064,-0.25182 1.83508,-0.25182c0.88059,0 1.0407,0 1.92129,0.49106c0.88059,0.49106 1.0407,-0.24553 1.0407,-0.49106c0,-0.24553 0.32021,-0.73658 1.28086,-0.65474c0.96064,0.08184 2.3154,-0.32737 2.56172,-0.08184s0.71433,1.22764 1.19465,0.90027c0.48648,-0.32107 0.64043,-0.90027 0.80669,0.08814c0.15395,0.97582 0.55422,2.45528 1.28086,2.70081c0.71433,0.24553 0.32021,1.22134 1.03454,1.30319c0.70817,0.08184 1.04686,-1.54871 0.80669,-2.12161c-0.24632,-0.5666 -0.72664,-2.2853 -1.12691,-2.69451c-0.39411,-0.40921 -0.39411,-1.47317 0.39411,-1.80054c0.80054,-0.32737 2.72183,-1.96422 3.27604,-2.44898c0.56653,-0.49735 2.0814,-0.90656 1.60723,-1.5613c-0.48032,-0.65474 -0.64043,-1.05766 -0.64043,-1.55501s0.48032,-0.32737 0.72048,0s1.19465,-0.49106 0.95449,-0.90027c-0.234,-0.40292 -0.16011,-0.97582 0.40027,-0.90027c0.56038,0.08184 0.71433,-0.40921 0.48032,-0.73658c-0.24016,-0.32737 0.56038,-0.73658 1.12075,-0.5729c0.56653,0.16369 2.00134,-0.08184 2.2415,-0.40921c0.234,-0.32737 -0.48032,-0.65474 -0.48032,-1.30948c0,-0.65474 0.95449,-1.22764 1.52102,-1.30948c0.56038,-0.08184 1.2747,0 1.36091,-0.24553c0.0739,-0.24553 0.88059,-0.90027 0.95449,-0.32737c0.08621,0.5729 0,1.55501 0.64043,1.55501c0.64043,0 1.42865,-0.73658 1.67497,-0.81213c0.234,-0.08184 1.76118,-0.40921 2.0814,-0.49106c0.32021,-0.08184 2.23534,-0.24553 2.00134,-0.81843c-0.24016,-0.5666 -0.48032,-1.1395 -0.72664,-1.38503c-0.24016,-0.24553 -0.47416,0.08184 -0.80054,0.49106c-0.31406,0.40921 -0.88059,0.40921 -1.03454,0.08184c-0.16011,-0.32107 0.0739,-1.30319 -0.48032,-0.98211c-0.56653,0.32737 -0.64043,0.65474 -0.9668,0.49106c-0.32021,-0.16369 -0.63427,-0.73658 -0.63427,-0.73658s0.79438,-0.40292 0.234,-1.1458c-0.55422,-0.73658 -1.36091,-0.5729 -2.15529,-0.15739c-0.80054,0.40292 -0.72664,0.32107 -1.68113,0.5666s-1.44097,0.49106 -1.44097,0.49106s1.28702,-0.81213 1.84123,-1.30948c0.56038,-0.49106 1.28702,-0.73658 1.76118,-1.22764c0.48032,-0.49106 1.75502,0.24553 1.75502,0.24553s0.64659,-0.65474 0.64659,-0.24553s-0.16627,1.47317 0.31406,1.47317c0.48648,0 1.84123,-0.65474 1.29317,-0.82472c-0.57269,-0.16369 0.79438,0 1.3486,-0.40921c0.56653,-0.40921 1.19465,-0.40921 1.52102,-0.5666c0.32021,-0.16369 0.56653,-0.90027 1.12075,-0.90027c0.56653,0 0.80054,0.73658 0,1.22764s-0.88059,1.71869 -1.28086,2.04606c-0.39411,0.32737 -0.16011,0.73658 0.48032,0.65474c0.64043,-0.08184 1.19465,0.08184 1.76118,-0.08184s0.88059,0.16369 1.03454,0.40921c0.16011,0.24553 0.64043,-0.24553 0.64043,-0.24553s1.0407,-0.24553 1.36091,0.16369c0.32637,0.40292 0.56653,-0.24553 0.32637,-0.65474c-0.24016,-0.40292 -0.56653,-0.81213 -0.80054,-1.30948c-0.24016,-0.49106 -0.56038,-0.65474 -1.19465,-0.49106c-0.64043,0.16369 -0.80054,-0.16369 -1.20081,-0.40292c-0.40027,-0.25182 -0.72664,0.32737 -0.40027,-0.25182c0.32637,-0.5666 0.48032,-0.73658 0.72048,-1.22764c0.24016,-0.49106 1.28702,-1.39132 0.24016,-1.63056c-1.0407,-0.25182 -1.36707,-0.40921 -1.52102,-0.90027c-0.16011,-0.49106 -1.36091,-1.39132 -1.67497,-1.39132c-0.32637,0 -1.43481,0 -1.52102,-0.40921c-0.08005,-0.40921 -0.88059,-1.30948 -1.28086,-1.71869c-0.39411,-0.40921 -1.92129,-2.20975 -2.16145,-2.37343c-0.24016,-0.16369 -0.56038,-0.08184 -1.28086,0.90027c-0.71433,0.98841 -1.35475,1.15209 -1.92129,0.90656c-0.56038,-0.24553 -0.64043,-0.16369 -1.18849,-0.81843c-0.57269,-0.65474 0.55422,-0.73658 0.31406,-1.1458c-0.24632,-0.40292 -1.52102,-0.5729 -2.32156,-0.65474c-0.80054,-0.08184 -1.36091,-0.98211 -2.56172,-1.06395c-1.19465,-0.08184 -2.63561,0.16369 -3.03588,0.16369c-0.39411,0 -0.39411,0.5729 -0.55422,1.47317c-0.16627,0.90027 0.55422,1.1458 -0.16627,1.30948c-0.71433,0.16369 -1.0407,0.24553 -0.32021,0.5729c0.72048,0.32737 1.68113,1.63685 1.68113,1.63685s0,0.73658 -0.56653,1.1458c-0.55422,0.40921 -1.12075,0.81843 -1.43481,0.33367c-0.32637,-0.49735 -1.20081,-0.40921 -0.95449,0.08184c0.234,0.49106 0.71433,0.73658 0.71433,1.22764c0,0.48476 0.72048,1.7124 0.24016,2.12161c-0.48032,0.40921 -1.03454,0.08814 -1.43481,0.16369s-0.80669,-0.65474 -0.48032,-0.81843c0.31406,-0.16369 -0.08621,-1.39132 -0.08621,-1.39132s-0.95449,1.39132 -0.88059,0.65474c0.08621,-0.73658 -0.39411,-0.81843 -0.39411,-1.39132c0,-0.5729 -0.48648,-0.81843 -1.19465,-0.65474c-0.72664,0.16369 -1.60107,-0.25182 -2.96814,-0.49735c-1.35475,-0.24553 -1.91513,-0.40292 -3.03588,-0.98211c-1.12075,-0.5729 -1.52102,-0.16369 -2.0814,-0.08184c-0.56038,0.08184 -0.32021,-1.1458 -1.0407,-1.30319c-0.71433,-0.16998 -1.11459,0.15739 -1.2747,-0.90656c-0.16011,-1.05766 0.24016,-1.30948 1.99518,-2.45528c1.76118,-1.1458 1.52102,-1.63685 2.88193,-1.80054c1.35475,-0.16369 2.00134,0.16369 2.00134,-0.24553s0.32021,-2.04606 0.32021,-1.22764s1.61339,0.86879 0.88675,1.44169c-0.71433,0.5729 -0.32021,0.65474 0.24632,0.65474c0.56038,0 1.59492,-0.5729 1.59492,-0.5729s1.28086,-0.5729 1.60107,-0.08184c0.32637,0.49106 0.32637,0.98211 0.88675,0.98211s1.75502,-0.65474 0.71433,-1.22764c-1.03454,-0.5729 -1.67497,-0.49106 -2.3154,-1.1458s-0.48032,-0.40921 -1.20081,-0.24553c-0.71433,0.16369 -0.71433,-0.24553 -0.96064,-0.24553s-0.64043,0.16369 -0.80054,-0.16369c-0.15395,-0.32737 0.08621,-0.40921 0.89291,-0.40921c0.79438,0 1.75502,0.24553 1.75502,0.24553s0.95449,-0.32737 1.19465,-0.40921c0.24016,-0.08184 1.52102,-0.24553 1.28086,-0.97582c-0.24632,-0.73658 -1.0407,-0.73658 -1.28086,-0.98211s0.48032,-0.5666 0.88059,-0.73658c0.40027,-0.16369 1.52102,0 1.52102,0s0.72048,0.08184 0.72048,-0.24553s-0.17242,-0.73658 0.31406,-0.49106s0,0.98211 0.72048,0.81843c0.71433,-0.16369 0.88059,0 1.2747,0.24553c0.40027,0.24553 -0.08005,1.22764 -0.47416,1.39132c-0.40027,0.15739 -1.0407,0.48476 -0.16011,0.5666c0.88675,0.08814 1.51486,0.08814 1.51486,0.08814s0.56653,-0.5729 0.80669,-1.06395c0.234,-0.49106 0.64043,-0.16369 0.95449,0c0.32021,0.15739 1.52102,0.40921 0.40027,0.73658c-1.12691,0.32737 -1.36091,0.73658 -1.60107,1.1458c-0.234,0.40921 -0.32637,0.65474 -1.36091,0.40921c-1.04686,-0.24553 -1.60107,-0.16369 -1.84123,0.24553c-0.24016,0.40292 -0.08005,1.71869 0.32637,1.55501c0.38795,-0.16369 0.79438,-0.16369 1.2747,-0.32737c0.48032,-0.16369 2.40161,0.16369 2.87577,0.08184c0.48032,-0.08184 1.28702,0.81843 1.52718,0.65474c0.24016,-0.16369 0.72048,0.32737 1.19465,0.65474c0.48032,0.32737 0.32021,-0.73658 1.19465,-0.08184c0.88675,0.65474 0.40027,0.65474 0.88675,0.65474c0.46801,0 1.51486,0.08184 1.51486,0.08184s0.08621,-0.81213 0.88675,-0.65474c0.80054,0.16369 1.5087,1.06395 1.42865,0.40292c-0.0739,-0.64845 0.08005,-1.1395 -0.55422,-1.63056c-0.64043,-0.49106 -1.67497,-0.81843 -1.84123,-1.06395c-0.16011,-0.24553 -0.32021,-0.5729 -0.08005,-0.73658c0.24016,-0.15739 1.36091,0.08184 1.99518,0.49735c0.64043,0.40921 1.20081,0.81843 1.68113,0.49106c0.47416,-0.32737 1.04686,-0.49106 1.28086,-0.73658c0.234,-0.25182 0.80054,-0.98211 0.80054,-0.98211s-2.40777,-0.32107 -2.71567,-0.73658c-0.32637,-0.40921 -1.44712,-0.98211 -1.76734,-0.98211s-1.19465,0.5729 -1.51486,-0.24553s-0.32021,-1.80054 -0.64659,-1.88238c-0.3079,-0.08184 -3.67631,-0.5729 -4.15048,-0.81843c-0.48032,-0.24553 -2.40161,-0.81843 -3.12209,-1.22764s-1.76118,-0.98211 -2.39545,-0.98211c-0.64043,0 -3.2822,0.32737 -3.76252,0.24553c-0.48032,-0.08184 -1.92129,0.16369 -2.48166,0.24553c-0.56038,0.08184 0.72048,1.1458 -0.47416,1.39132c-1.20081,0.24553 -1.0407,0.40921 -0.80054,-0.81843c0.234,-1.22764 -0.80669,-1.55501 -1.84123,-1.06395c-1.0407,0.49106 -2.72183,0.81843 -2.32156,1.39132c0.40027,0.5729 -0.0739,0.98841 0.72048,1.55501c0.80054,0.5729 1.12691,0.73658 2.15529,0.65474c1.04686,-0.08184 2.08755,0.15739 2.08755,0.15739s0,0.98841 -0.39411,1.1458c-0.40027,0.16369 -1.0407,0.16369 -1.20696,0.65474c-0.15395,0.49106 -0.95449,0.73658 -0.95449,0.49106s0.40027,-1.06395 -0.16011,-1.47317c-0.55422,-0.40921 -0.72048,-0.49106 -1.36091,-0.08184c-0.64043,0.40921 -0.71433,0.5729 -1.0407,-0.08184c-0.32021,-0.65474 -1.28086,-1.22764 -1.28086,-1.22764s-0.64043,-0.81213 -1.12075,-1.22134c-0.47416,-0.40921 -1.35475,-0.32737 -1.44097,0.08184c-0.08005,0.40292 0.16011,0.81213 0.48032,1.55501c0.32021,0.73658 0.64043,2.12161 0.08005,2.20975c-0.56038,0.08184 -0.64043,0.16369 -1.20081,0.32737c-0.56038,0.16369 -0.80054,-0.24553 -0.80054,-0.90027s-0.24632,-1.22764 -0.08005,-1.47317c0.16011,-0.24553 -0.64043,0.16998 -1.44097,0c-0.80054,-0.15739 -1.43481,0.32737 -0.64043,0.57919c0.80054,0.24553 0.9668,1.22134 0.24016,1.46687c-0.72048,0.24553 -3.44231,0 -4.3229,0s-2.15529,0.24553 -2.40161,-0.24553c-0.24016,-0.49106 0.72664,-0.81213 1.28086,-0.81213c0.56038,0 2.23534,0.07555 2.87577,-0.81843c0.64043,-0.90027 -0.80054,-1.06395 -1.43481,-1.06395c-0.64043,0 -1.12691,-0.24553 -1.84123,-0.97582c-0.72664,-0.73658 0.48032,-1.22764 0.32021,-1.55501c-0.16011,-0.32737 -0.96064,-0.08814 -1.67497,-0.08814c-0.72048,0 -1.84123,-0.5666 -1.84123,0.08814c0,0.65474 0.88059,2.53082 0.32021,2.12161c-0.56038,-0.40292 -0.48032,-0.98211 -0.88059,-1.47317c-0.40027,-0.49106 -1.03454,-0.40921 -1.84123,-0.32737c-0.79438,0.08184 -2.15529,0.32737 -2.55556,0.24553c-0.39411,-0.08184 -0.08005,-0.08184 -0.96064,-0.49106c-0.87443,-0.40921 -1.28086,-0.32737 -1.92129,-0.73658c-0.63427,-0.4218 -0.0739,-0.57919 -1.19465,-0.66104c-1.11459,-0.08184 -1.03454,0.5666 -2.15529,0.40921c-1.12075,-0.16369 -1.44097,0.08184 -2.56172,0c-1.12075,-0.08184 -1.67497,-0.16369 -1.84123,0.40921c-0.15395,0.5729 -0.48032,1.55501 -0.96064,1.55501c-0.47416,0 -1.0407,0.5729 0.48032,0.65474c1.52102,0.08184 0.64659,0.81213 2.00134,0.73658c1.36091,-0.08184 2.56172,-0.08184 2.88193,-0.73658c0.32021,-0.65474 0.56038,-0.65474 0.72048,-0.40921c0.15395,0.24553 1.35475,1.7124 1.35475,1.7124s0.80669,0.65474 1.12691,0.81843c0.31406,0.16369 -0.32021,0.90027 -0.96064,0.49106c-0.64043,-0.40921 -1.84123,-0.32107 -2.32156,-0.73029c-0.48032,-0.40921 -2.64177,-0.40921 -3.20215,-0.32737c-0.55422,0.08184 -1.52102,-0.24553 -1.84123,-0.24553c-0.31406,0 -1.36091,0.81843 -1.36091,0.81843s-0.40027,-0.66104 -0.63427,-0.98841c-0.24016,-0.32737 -0.64043,0.32737 -0.96064,0.40921c-0.32021,0.08184 -1.28086,-0.65474 -2.2415,-0.32737c-0.96064,0.32737 -0.64043,0.65474 -2.00134,0.5729s-1.67497,-0.32737 -2.15529,-0.24553c-0.48648,0.08184 -0.48648,0.08184 -0.48648,0.08184s0.08005,0.32737 -0.47416,0.65474c-0.56038,0.32737 -0.9668,0.73658 -1.36707,0.24553c-0.39411,-0.49106 -0.63427,-0.49106 -0.87443,-0.5729c-0.24632,-0.08184 -0.72664,-0.49106 -1.76118,-0.25182c-1.0407,0.25182 -2.64177,-0.32107 -2.95583,-0.32107c-0.24632,0 -1.92745,-0.09443 -3.02357,-0.20775c12.98717,-14.42948 31.55346,-23.54548 52.20731,-23.54548c13.10417,0 25.35238,3.7081 35.901,10.06034c-0.72048,0.45328 -1.96439,0.37773 -2.38929,0.1448c-0.48032,-0.27071 -0.97296,-0.49106 -2.92504,-0.38403c-1.95208,0.11332 -4.09505,0.76806 -3.664,1.4228c0.44337,0.65474 -0.87443,1.03877 -1.21312,0.7114c-0.33869,-0.32737 -1.90281,0.37773 -1.80429,1.03877c0.09853,0.65474 -0.24016,1.41651 -1.07765,1.25282c-0.82517,-0.16998 -1.41018,0.37773 -1.45944,0.91916c-0.04311,0.54772 -1.90281,0.92545 -2.04445,0.92545c-0.14779,0 -2.53709,-0.05036 -1.66265,0.59808c0.59732,0.4344 0.9237,0.16998 1.66265,0.32737c0.7328,0.16369 1.31781,1.36614 1.70576,1.52983c0.38179,0.16369 0.9237,0 1.16386,-0.32737c0.24632,-0.32737 0.58501,-1.47317 0.58501,-1.47317s0,1.08914 0.59732,1.30948c0.58501,0.22035 2.03829,-0.16369 2.4324,-0.10702c0.39411,0.05036 2.69104,0.38403 3.31299,0.70511c0.64043,0.32737 2.19224,0.54772 2.63561,1.25282c0.43722,0.7114 0.49264,3.16668 0.7328,3.43739c0.24632,0.27071 1.07149,-0.87509 1.26238,-1.1458c0.1909,-0.27701 1.21928,-0.11332 1.56413,0.26441c0.34485,0.38403 1.12075,1.30948 1.07765,1.69351c-0.06158,0.39033 -0.20321,0.98211 -0.49264,0.76806c-0.29558,-0.21405 -0.78206,-0.15739 -0.59117,-0.59808c0.19706,-0.4344 0.29558,-1.36614 -0.09237,-1.36614c-0.39411,0 -0.7328,0 -0.7328,0s-0.73896,-0.22035 -1.22544,0.59808s-0.09237,1.63685 0.24632,1.63685s1.13307,0 1.13307,0.21405c0,0.22035 -0.83748,0.87509 -0.78822,1.25912c0.05542,0.38403 0.67738,1.68722 0.88675,1.96422c0.1909,0.27071 1.21312,0.54142 1.50255,0.60438c0.30174,0.05036 -0.68354,0.10702 -0.43106,0.48476c0.24632,0.38403 0.62811,1.30948 1.16386,1.52983c0.53574,0.22035 2.05061,1.19616 2.23534,1.63685c0.19706,0.4344 1.36707,-0.32737 1.61339,-0.38403c0.24632,-0.05036 0.19706,1.1458 0.88059,1.20246c0.67738,0.05036 0.9237,-0.11332 1.5087,-0.60438s0.44337,-1.1458 0.48648,-1.63685c0.05542,-0.49106 0,-0.86879 0.64043,-0.7114c0.64043,0.16369 0.97296,-0.11332 0.9237,-0.65474c-0.04926,-0.54772 -0.58501,-1.20246 0.43106,-1.36614c1.02838,-0.16369 1.56413,-0.86879 2.1984,-0.86879c0.63427,0 2.39545,0.27071 2.58019,0c0.19706,-0.27071 1.02838,-1.52983 1.56413,-1.58019c0.41258,-0.04407 1.37939,-0.13221 2.37082,-0.26441c9.74192,11.86717 15.77057,26.97028 16.46027,43.471c-0.72664,1.001 -0.0739,1.92015 0.12932,2.5686c0.00616,0.18887 0.03079,0.36514 0.03079,0.55401c0,0.8562 -0.09853,1.69351 -0.12932,2.54342c-0.00616,0.01259 -0.00616,0.02518 -0.01847,0.03777zm-59.83089,-27.23469c-0.39411,0.08184 -1.0407,-0.32737 -1.0407,-0.90027s-0.56038,1.06395 -0.24632,1.55501c0.32637,0.49106 -0.64043,1.06395 -0.95449,1.06395s-0.56038,-0.73029 -0.48032,-1.46687c0.08621,-0.73658 -0.47416,-1.39132 -1.36091,-1.30948c-0.88059,0.08814 -1.28086,0.81843 -1.59492,1.06395c-0.32637,0.24553 -0.32637,1.63056 -0.24632,1.96422s0.08005,1.47946 -0.71433,1.39132c-0.72664,-0.08184 -0.56653,-1.46687 -0.48648,-1.96422c0.08621,-0.49106 -0.24016,-1.71869 0.08621,-2.36714c0.32637,-0.65474 1.2747,-0.90027 1.92129,-0.98211s1.99518,0.40921 2.23534,0.32737c0.24632,-0.08814 1.36707,-0.08814 1.92129,0c0.56038,0.06925 1.35475,1.54242 0.96064,1.62426zm1.43481,0.24553c0.24632,0.16369 1.91513,-0.24553 2.2415,0.16369c0.31406,0.40921 -0.33253,0.49106 -1.12691,0.81843c-0.79438,0.32737 -1.0407,0.24553 -1.36091,0.65474s-1.36091,0.5666 -1.84123,1.05766c-0.48032,0.49735 -1.33628,0.78695 -1.51486,0.40921c-0.24632,-0.49106 0.08005,-0.24553 0.15395,-0.49106c0.08005,-0.24553 1.5087,-0.81213 1.5087,-0.81213s1.6996,-1.96422 1.93976,-1.80054zm-6.39814,-2.86449c-0.234,0.08184 -1.12075,-0.16369 -1.84739,-0.16369c-0.71433,0 -0.56038,-0.49106 -0.88059,-0.40292c-0.31406,0.08184 -1.03454,0.24553 -1.52102,0.49106c-0.48032,0.24553 -1.28086,0.18887 -1.28086,-0.25182c0,-0.65474 0.32021,-0.49106 1.36091,-0.90027c1.0407,-0.40921 2.16761,-1.55501 2.64177,-1.06395c0.48032,0.49106 1.36091,1.06395 1.92129,1.1458c0.56653,0.08814 -0.16011,1.06395 -0.39411,1.1458zm-8.18395,-25.3775c-0.48648,0.16369 -2.13682,0.87509 -1.97671,1.25282c0.06158,0.1448 0.48032,0.4344 1.17002,0.32737c0.69585,-0.11332 1.6996,-0.22035 2.18608,-0.27071c0.48032,-0.05666 0.58501,-0.87509 0.05542,-0.92545c-0.53574,-0.05666 -0.96064,-0.54772 -1.43481,-0.38403zm-5.91781,0.65474c-0.37564,0.16369 -1.49639,-0.27071 -2.0814,0.11332c-0.37564,0.23923 -0.16011,1.03248 0.43106,1.08284c0.58501,0.05666 1.59492,-0.37773 1.6996,-0.05036c0.11084,0.32737 0.48032,1.80054 1.44097,1.30948c0.96064,-0.49106 0.90522,-0.92545 1.17002,-0.98211c0.26479,-0.05666 -0.04926,-1.25282 -0.48032,-1.52983c-0.4249,-0.27071 -1.81044,-0.10702 -2.17992,0.05666zm-1.92745,-4.63355c0.10469,0.27701 -0.04926,0.49106 0.69585,0.59808c0.74511,0.11332 1.06533,0.22035 1.49639,0.22035c0.4249,0 0.25863,-0.7114 -0.11084,-1.19616c-0.37564,-0.49106 -0.26479,-0.4344 -1.22544,-0.7114c-0.96064,-0.27071 -1.92129,-0.27071 -2.56172,-0.22035c-0.64043,0.05666 -1.33628,-0.10702 -1.49639,0.65474c-0.08005,0.39033 0.43106,0.70511 1.07149,0.70511s2.02597,-0.32107 2.13066,-0.05036zm1.3917,2.9967c0.26479,0.59808 0.26479,0.32107 1.01607,0.38403c0.73896,0.05666 1.32396,-0.76177 1.37939,-1.03248c0.05542,-0.27701 -0.37564,-0.81843 -1.38554,-0.7114c-1.01607,0.10702 -4.10737,-0.16369 -4.53227,0.21405c-0.40643,0.36514 0,1.46687 -0.16011,1.58019c-0.16011,0.10702 0.05542,0.59808 0.47416,0.49106c0.4249,-0.10702 0.64043,-1.1458 0.9668,-1.1458c0.32021,0.0063 1.97671,-0.37773 2.2415,0.22035zm-10.03134,-2.23493c0.32021,0.27071 1.12691,0.05036 1.06533,-0.22035c-0.04926,-0.27071 0.32637,-1.36614 -0.31406,-1.41651c-0.64043,-0.05036 -1.53949,0.60438 -2.5063,0.93175c-0.62196,0.20775 -0.48032,0.81843 -0.05542,0.81843s1.49639,-0.38403 1.81044,-0.11332zm4.54459,0.98211c-0.53574,0.27071 -0.70201,0.4344 -1.17617,0.32737c-0.48032,-0.10702 -0.48032,-0.98211 -1.33628,-0.81843c-0.8498,0.16369 -1.00991,0.65474 -1.2747,0.87509s-0.85596,0.38403 -1.06533,0.27071c-0.20937,-0.10702 -1.44097,-0.81213 -1.44097,-0.81213s-2.56172,-0.11332 -2.6664,-0.44069c-0.10469,-0.32737 -0.52959,-0.86879 -1.70576,-0.76177s-3.20215,0.81843 -3.52236,0.81843c-0.32021,0 0.38179,0.65474 -0.05542,0.65474c-0.4249,0 -0.95449,-0.05036 -1.11459,0.4344c-0.11084,0.33367 0.48032,0.32737 1.16386,0.32737c0.68969,0 1.8166,0 2.13682,-0.16369c0.32021,-0.16369 1.92129,-0.54772 1.86587,-0.05666c-0.05542,0.49735 0.64043,1.25282 1.00991,1.1458c0.37564,-0.10702 1.12691,-0.81843 1.49639,-0.54142c0.37564,0.27071 0.43106,0.91916 0.80054,1.08914c0.37564,0.15739 1.3917,0.15739 1.87202,0c0.47416,-0.16998 1.81044,-0.16998 2.39545,-0.05666c0.58501,0.11332 2.29692,0.4344 2.45703,0.11332c0.16011,-0.33367 0.64043,-0.38403 0.68969,-0.7114s0.31406,-1.35985 0.31406,-1.35985s-0.31406,-0.60438 -0.84364,-0.33367zm27.00272,56.38954c-0.7328,0.13221 -0.56038,1.58649 0.32021,1.32207c0.88059,-0.26441 0.40643,-1.46058 -0.32021,-1.32207zm6.95851,-1.95163c-0.64043,-0.16369 -1.36091,0 -1.84123,0.08184c-0.48032,0.08184 -1.84123,1.30948 -1.84123,1.30948s0.88059,0.16369 1.43481,0.16369c0.56653,0 0.88675,0.32107 1.36091,0.5666c0.48032,0.25182 1.36091,-0.32737 1.67497,-0.32737c0.32637,0 0.72664,0.98211 0.80669,-0.08184c0.08621,-1.06395 -0.95449,-1.54871 -1.59492,-1.7124zm-22.28571,-53.0214c-0.26479,-0.65474 -1.59492,-0.87509 -1.87202,-0.22035c-0.234,0.5729 2.13682,0.87509 1.87202,0.22035zm15.2533,49.01112c0.88059,-0.16369 0.39411,-0.90656 -0.32637,-0.81843c-0.72664,0.08184 -0.56038,0.98211 0.32637,0.81843zm10.63482,5.05535c-0.7328,0.1385 -0.56653,1.59278 0.31406,1.32837c0.88675,-0.26441 0.40643,-1.46058 -0.31406,-1.32837zm-9.68649,-2.43639c-0.55422,0.08184 -1.75502,-0.5666 -2.39545,-1.1458c-0.64043,-0.5729 -1.84123,-0.5729 -2.32156,-0.5729c-0.47416,0 -2.40161,0.5729 -2.40161,0.5729c-0.08005,0.81843 0.72048,0.5729 1.68113,0.5729s2.64177,-0.16369 2.94967,0.24553c0.32637,0.40292 1.76118,1.05766 2.16761,1.39132c0.39411,0.32737 1.67497,0.40921 1.75502,0.08184s-0.87443,-1.22764 -1.43481,-1.1458zm-9.5387,-52.22816c-0.80054,-0.05666 -1.8166,-0.05666 -2.45703,0c-0.64043,0.05036 -1.12075,-0.4344 -1.60107,-0.7114c-0.47416,-0.27071 -1.54565,-1.1458 -2.17992,-1.25282c-0.64043,-0.10702 -0.52959,-0.10702 -1.86587,-0.4344c-0.67738,-0.16998 -1.81044,-0.38403 -1.81044,-0.54142c0,-0.16369 -0.32021,0.76177 0.26479,1.03877c0.58501,0.27071 1.54565,0.76177 2.23534,1.03248c0.70201,0.27071 2.02597,0.32737 2.45703,0.87509c0.4249,0.54142 1.86587,0.98211 1.86587,0.98211l1.70576,0.16369c0,0 1.17617,-0.27071 2.40161,-0.16369c1.22544,0.10702 3.03588,0.27071 4.05811,0.22035c1.00375,-0.05036 1.16386,-0.38403 1.28086,-0.59808c0.09853,-0.22035 -1.87202,-0.65474 -2.3585,-0.59808c-0.46801,0.03777 -3.20215,0.03777 -3.99653,-0.01259zm2.98046,12.5408c-0.20937,0.24553 0.9668,0.59808 1.17617,0.27071c0.20937,-0.32107 -0.62811,-0.86879 -1.17617,-0.27071zm3.58394,1.1395c0.52959,-0.22035 0.26479,-0.87509 -0.48648,-0.65474c-0.8498,0.25182 -0.05542,0.87509 0.48648,0.65474z" stroke-width="0" fill="#aad4ff"/>
  <ellipse stroke="#aaffff" ry="83.5" rx="84.99999" id="svg_22" cy="262" cx="250" stroke-width="0" fill="#ffffff"/>
  <path stroke="#000000" id="svg_23" d="m250.22736,177.63981c-46.94474,0 -84.99999,37.60754 -84.99999,84c0,46.39246 38.05525,84 84.99999,84c46.94474,0 84.99999,-37.60754 84.99999,-84c0,-46.39246 -38.05525,-84 -84.99999,-84zm18.4691,126.01156c-0.46202,0.36989 -1.07025,0.75134 -0.61408,1.19637c0.45617,0.45081 -0.52635,0.75712 -0.52635,0.98252s0.60823,1.42177 0.30411,1.94193c-0.30411,0.53172 -0.5322,1.28884 -0.76029,1.73964c-0.22809,0.44503 -0.76613,0.89583 -0.60823,1.57204c0.14621,0.67043 -0.60823,0.44503 -0.60823,1.12123c0,0.67043 0.67841,0.37567 0.52635,1.20215c-0.14621,0.83226 -0.52635,1.05766 -0.52635,1.64717c0,0.60107 0.37429,1.42755 0.37429,1.65295s-0.37429,0.98252 -0.9065,1.57204c-0.53805,0.60107 -0.9065,0.98252 -0.84216,1.34664c0.08188,0.37567 0.60823,0.83226 0.5322,1.06344c-0.07603,0.21384 -0.75444,0.97096 -0.67841,1.4969c0.08188,0.52016 0.75444,0.30632 0.9065,0.67043c0.15206,0.37567 -0.9065,0.68199 -0.45617,1.05766c0.45617,0.36989 1.07025,0.29476 0.91234,1.20215c-0.11112,0.64731 0.37429,0.94207 0.73689,1.14435c-5.21088,1.27728 -10.63231,2.0344 -16.24088,2.0344c-37.19554,0 -67.44908,-29.89762 -67.44908,-66.65557c0,-11.98101 3.25753,-23.2049 8.8778,-32.9261c0.46202,-0.24274 0.80122,-0.39879 1.00007,-0.35833c0.38014,0.07513 0.46202,0.60107 1.07025,0.75134c0.60823,0.15027 1.14043,-0.45081 1.52057,-0.67621c0.37429,-0.2254 0.67841,-1.12701 0.29827,-1.05188c-0.38014,0.07513 -1.36852,0 -1.36852,0s1.07025,-0.60107 1.07025,-0.97674s0.14621,-0.97674 0.75444,-1.20215c0.60238,-0.23118 0.60238,-0.08091 0.22224,0.8207c-0.38014,0.90161 0.76613,0.52594 1.21646,0.15027s0.76029,-0.07513 1.59075,-0.60107c0.83631,-0.52594 0.83631,-0.82648 1.29249,-0.82648c0.45617,0 1.29249,0.82648 1.74866,0.52594c0.45032,-0.30054 1.74866,0.37567 2.50894,0.37567c0.75444,0 3.18735,0.97674 3.64937,0.97674c0.45617,0 1.82469,0.52016 1.90072,1.4969c0.07603,0.97674 0.52635,0.90161 0.98252,0.90161s1.52057,0.37567 1.52057,0.75134c0,0.37567 -0.30411,1.87835 0.45617,2.25403c0.75444,0.36989 1.44454,0.97674 1.74866,0.82648c0.30411,-0.15027 0,-1.34664 -0.37429,-1.50268c-0.38014,-0.15027 -0.15791,-0.67621 -0.30411,-0.97674c-0.15206,-0.29476 0.45617,-0.29476 0.68426,0.2254c0.22809,0.52594 0.83631,1.50268 1.21646,1.50268c0.37429,0 1.21646,0.90161 0.98252,1.42755c-0.22809,0.52594 0.22809,1.27728 0.91234,1.27728c0.67841,0 1.52057,1.05188 1.82469,1.12701c0.30411,0.07513 0.68426,0.45081 0.68426,0.67621c0,0.23118 0.38014,1.50268 0.38014,2.02862c0,0.52016 -0.23393,2.62392 -0.30996,3.45039s0.60823,2.25403 1.36852,3.00537c0.75444,0.75134 1.4387,2.17889 1.89487,2.47943c0.46202,0.30054 0.76029,1.12701 1.44454,1.05188c0.68426,-0.07513 1.14043,0.45081 1.74866,1.50268c0.60823,1.05188 1.21646,2.77418 1.67263,2.92445c0.45617,0.15027 1.21646,0.67621 0.83047,1.05188c-0.37429,0.36989 -0.98252,1.20215 -0.29827,1.20215c0.68426,0 0.91234,-0.37567 1.44454,0.30632c0.52635,0.67043 1.21646,1.0461 1.13458,1.50268c-0.07603,0.44503 0.60823,0.59529 0.91234,0.67043c0.30411,0.07513 0.98837,1.42755 1.67263,0.82648c0.68426,-0.60107 -0.9065,-1.4969 -1.36852,-1.88413c-0.45617,-0.36989 0,-1.19637 -1.0644,-2.02284c-1.0644,-0.82648 -0.91234,-1.42755 -1.67263,-2.02862c-0.76029,-0.60107 -1.36267,-1.12701 -0.60823,-1.65295c0.76029,-0.52594 0.83631,0.52594 1.14043,1.20215c0.30411,0.67043 1.89487,2.02862 2.57912,2.62392c0.68426,0.60107 1.90656,2.70483 2.28086,2.70483s1.44454,1.20215 1.44454,1.20215s0.60238,0.97096 0.37429,1.2715c-0.22809,0.30054 0.30996,1.42755 0.84216,1.72809c0.52635,0.30054 2.661,1.2715 2.96512,1.42755c0.30411,0.15605 0.9065,1.27728 1.74866,1.27728c0.83047,0 1.44454,0.08091 1.67263,0.30632c0.22809,0.21962 0.9065,1.12123 1.36852,0.60107c0.45617,-0.53172 0.52635,-0.75712 1.21646,-0.75712c0.68426,0 0.98252,0.52594 1.36267,0.90161c0.38014,0.37567 1.44454,1.35819 1.97674,1.28306c0.5322,-0.07513 1.21646,0.60107 1.5966,0.36989s0.98837,0.14449 1.28664,0.30054c0.31581,0.15027 1.36852,0.68199 1.29833,1.57204c-0.07603,0.90739 0.60238,1.12701 1.0644,1.35242c0.45617,0.2254 1.0644,0.75134 1.45039,1.12701c0.37429,0.36411 1.20476,0.44503 1.4387,0.67043c0.22809,0.2254 0.38014,0.67621 1.0644,0.30054c0.67841,-0.36989 0.53805,-1.0461 0.53805,-1.0461s0.75444,-0.15027 1.13458,0.15027c0.37429,0.28898 0.60823,1.2715 0.84216,1.42177c0.22224,0.15027 0.67256,1.27728 0.36845,2.0922c-0.29827,0.83803 -0.22224,1.65295 -0.5322,1.65295c-0.30411,0 -0.67841,0.98252 -1.14043,1.20793c-0.44447,0.2254 -1.66678,1.27728 -1.59075,1.65295c0.07603,0.36411 0.76613,1.49112 0.60823,2.02284c-0.14621,0.52594 -1.13458,1.12701 -0.90065,1.95349c0.22224,0.83226 1.82469,1.05766 1.88902,1.80322c0.08188,0.75712 1.22231,2.41007 1.37436,3.15564c0.14621,0.75134 1.4387,1.57204 1.4387,2.61814c0,1.06344 1.82469,1.73387 2.20483,1.80322c0.36845,0.07513 1.0644,0.75712 1.59075,0.98252s0.98837,0.67043 1.36267,1.27728s0.30996,1.50846 0.30996,1.72809c0,0.2254 -0.22809,2.543 -0.45617,3.89542c-0.23393,1.35819 0.29242,2.41007 -0.15791,2.79152zm-49.07939,-69.82276c0.22809,0.07513 0.68426,0.52594 0.91234,0.52594c0.23393,0 1.36852,0.90161 1.67263,1.20215c0.30996,0.30054 0.30996,1.12701 -0.07603,1.20215s-0.60823,-0.82648 -0.68426,-1.20215c-0.07603,-0.37567 -0.83631,-0.37567 -1.21646,-0.60107c-0.38014,-0.2254 -1.22815,-1.33508 -0.60823,-1.12701zm97.92485,30.18082c-0.84216,1.05188 -0.76029,1.57204 -1.14043,1.65295c-0.37429,0.07513 0.38014,0.37567 0.52635,1.12123c0.12866,0.64731 -0.38014,1.29462 0.36845,1.88991c-2.8423,26.69575 -21.6974,48.74474 -46.88041,56.56447c-0.04094,-0.06358 -0.11112,-0.14449 -0.12282,-0.1965c-0.15791,-0.45081 -0.15791,-1.34664 0.37429,-1.64717c0.5322,-0.30632 1.82469,-1.34664 2.12295,-1.57204c0.30411,-0.23118 0.76029,-1.27728 0.5322,-1.42755c-0.22224,-0.15027 -1.35682,0 -1.52057,-0.2254c-0.15206,-0.2254 -0.15206,-0.53172 0.60823,-1.05188c0.76029,-0.52594 1.14043,-1.28306 1.44454,-1.50268c0.30411,-0.2254 0.9065,-0.67621 1.14043,-1.20793c0.22224,-0.52016 -0.23978,-0.2254 -0.69011,-0.2254s-0.68426,-0.8207 -0.68426,-1.19637s1.14043,0.15027 1.98259,0.30054c0.83631,0.13871 0.45032,-0.37567 0.37429,-0.8207c-0.07603,-0.45081 0.15206,-1.20793 0.61408,-0.98252c0.44447,0.2254 2.80136,-0.07513 3.10548,-0.15027c0.30411,-0.07513 1.13458,-1.42177 1.4387,-1.80322c0.30996,-0.37567 0.37429,-0.74556 0,-0.97096c-0.38014,-0.23118 -0.83631,-1.06344 -0.98252,-1.27728c-0.15206,-0.23696 -0.22809,-1.5836 -0.07603,-1.96505c0.14621,-0.36411 0,2.17889 1.05855,2.48521c1.07025,0.30054 1.67263,0.45081 2.661,-0.45081c0.98837,-0.89583 1.74281,-1.50268 1.82469,-2.09798c0.07603,-0.60107 0.30411,-1.20793 0.68426,-1.42177c0.38014,-0.2254 0.60823,0.59529 1.0644,-0.37567c0.45617,-0.98252 0.91234,-0.90739 1.36852,-1.72809c0.45032,-0.83226 -0.76029,-1.87835 0.14036,-2.48521c0.91819,-0.59529 2.51479,-1.34664 2.51479,-1.34664s0.45617,-0.2254 1.36852,-0.45081c0.9065,-0.21962 1.89487,-0.08091 2.19898,-0.52016c0.30411,-0.45658 0.60823,-1.42755 1.0644,-1.95349c0.46202,-0.53172 0.98837,-1.35242 0.76029,-1.72809c-0.22809,-0.37567 0.60823,-2.0344 0.5322,-2.47943c-0.07603,-0.45081 -0.76029,-1.50846 0.38014,-2.40429s2.35104,-2.2598 2.43292,-2.62392c0.07018,-0.37567 0.98837,-1.95349 0.90065,-2.71061c-0.07018,-0.74556 -0.90065,-1.64717 -1.43285,-1.87835c-0.53805,-0.21384 -1.67263,-0.28898 -2.1288,-0.89005s-1.74866,-1.20215 -2.20483,-1.05188c-0.45032,0.15027 -1.21646,0.29476 -1.82469,-0.08669c-0.60823,-0.36411 -1.59075,-0.82648 -1.9709,-1.12123c-0.38599,-0.29476 -1.36852,-0.52016 -1.82469,-0.52016s-0.38014,-0.30632 -1.0644,0.59529c-0.68426,0.90739 0,1.20793 -1.21646,1.05188c-1.22231,-0.13871 0.14621,-0.21962 0.84216,-1.12123c0.67256,-0.89583 -0.08188,-1.42755 -0.84216,-1.19637c-0.76029,0.2254 -0.22809,0.67621 -1.44454,0.90161c-1.21061,0.21962 -1.21061,-0.53172 -0.45032,-0.67621c0.76029,-0.15027 2.12295,-0.82648 2.12295,-1.12123c0,-0.30632 -0.15206,-1.13279 -0.76029,-1.13279s-0.45617,-0.74556 -1.36267,-1.71653c-0.91234,-0.98252 -2.05277,-1.5836 -2.97096,-1.43911c-0.90065,0.15027 -1.59075,0.37567 -2.04692,-0.43925c-0.45617,-0.83226 -0.98837,-0.98252 -1.29833,-1.42755c-0.29827,-0.45081 -1.0644,0 -1.29249,-0.2254s-0.22809,-0.2254 -0.22809,-0.2254s-0.98837,0.2254 -0.45032,-0.45081c0.52635,-0.67621 0.75444,-1.95349 0.52635,-1.87835c-0.22224,0.07513 -0.60823,1.13279 -0.98252,1.05766c-0.37429,-0.07513 -0.08188,-0.23118 -0.84216,-0.67621c-0.76029,-0.45081 -1.9709,-0.07513 -1.9709,0.30054c0,0.37567 -0.38014,0.67621 -0.38014,0.67621s-0.22809,-0.21962 -0.45617,-0.67621c-0.22809,-0.45081 -1.29249,-0.52594 -1.82469,-0.07513c-0.52635,0.45081 -0.83047,-1.13279 -1.21061,-1.13279s-1.13458,0.37567 -1.52057,1.06344c-0.37429,0.67043 -0.22224,1.64717 -0.53805,1.57204c-0.29242,-0.07513 -0.36845,-1.34664 -0.29242,-1.80322c0.07018,-0.45658 0.9065,-1.20215 0.29242,-1.35242c-0.60238,-0.15027 -1.51472,0.75134 -1.88902,0.82648c-0.38014,0.07513 -1.14043,0.60107 -1.5966,1.20793c-0.45032,0.59529 -0.67841,0.97096 -1.14043,1.19637c-0.45032,0.2254 -1.12873,0 -0.97668,-0.2254c0.14621,-0.2254 -1.29833,-1.0461 -1.52642,-0.75134c-0.23393,0.30054 -0.9065,0.52594 -1.59075,0.83226c-0.68426,0.30054 -1.29833,-0.37567 -1.44454,-0.67621s-0.46202,-0.36989 -0.5322,-1.35242c-0.07603,-0.97096 0.15791,-2.02862 0.38014,-2.62392c0.22224,-0.60107 -1.14043,-1.80322 -1.67263,-1.73387c-0.5322,0.08669 -1.0644,0.60685 -1.59075,0.52594c-0.53805,-0.06935 -0.30411,-0.21962 -1.14043,-0.21962c-0.83631,0 -0.15206,-0.14449 0,-0.82648c0.14621,-0.67043 -0.30411,-1.57782 0.53805,-2.17889c0.83047,-0.60107 0.5322,-2.02862 0,-2.09798c-0.53805,-0.08091 -1.52642,0.2254 -2.20483,0.15027c-0.67841,-0.08091 -1.21646,0.52594 -0.98837,1.19637c0.22809,0.67621 -0.38014,1.12701 -0.60823,1.05766c-0.22809,-0.07513 -0.52635,-0.45081 -1.36852,0.15027c-0.83047,0.59529 -1.13458,0.36989 -1.9709,-0.30054c-0.83631,-0.68199 -1.74866,-1.35242 -1.90072,-2.40429c-0.15206,-1.05188 -0.23393,-2.10376 0.07603,-2.70483c0.29827,-0.60107 0.29827,-1.64717 -0.15206,-1.80322c-0.45617,-0.14449 0.52635,-0.89583 1.05855,-1.0461c0.53805,-0.15027 1.36852,-0.82648 1.52057,-1.12701c0.15206,-0.30054 0.91234,-0.23118 1.74281,-0.23118c0.83631,0 0.98837,0 1.82469,0.45081c0.83631,0.45081 0.98837,-0.2254 0.98837,-0.45081c0,-0.2254 0.30411,-0.67621 1.21646,-0.60107c0.91234,0.07513 2.19898,-0.30054 2.43292,-0.07513s0.67841,1.12701 1.13458,0.82648c0.46202,-0.29476 0.60823,-0.82648 0.76613,0.08091c0.14621,0.89583 0.52635,2.25403 1.21646,2.47943c0.67841,0.2254 0.30411,1.12123 0.98252,1.19637c0.67256,0.07513 0.99422,-1.42177 0.76613,-1.94771c-0.23393,-0.52016 -0.69011,-2.09798 -1.07025,-2.47365c-0.37429,-0.37567 -0.37429,-1.35242 0.37429,-1.65295c0.76029,-0.30054 2.58497,-1.80322 3.11132,-2.24825c0.53805,-0.45658 1.97674,-0.83226 1.52642,-1.43333c-0.45617,-0.60107 -0.60823,-0.97096 -0.60823,-1.42755s0.45617,-0.30054 0.68426,0s1.13458,-0.45081 0.9065,-0.82648c-0.22224,-0.36989 -0.15206,-0.89583 0.38014,-0.82648c0.5322,0.07513 0.67841,-0.37567 0.45617,-0.67621c-0.22809,-0.30054 0.5322,-0.67621 1.0644,-0.52594c0.53805,0.15027 1.90072,-0.07513 2.1288,-0.37567c0.22224,-0.30054 -0.45617,-0.60107 -0.45617,-1.20215c0,-0.60107 0.9065,-1.12701 1.44454,-1.20215c0.5322,-0.07513 1.21061,0 1.29249,-0.2254c0.07018,-0.2254 0.83631,-0.82648 0.9065,-0.30054c0.08188,0.52594 0,1.42755 0.60823,1.42755c0.60823,0 1.35682,-0.67621 1.59075,-0.74556c0.22224,-0.07513 1.67263,-0.37567 1.97674,-0.45081c0.30411,-0.07513 2.12295,-0.2254 1.90072,-0.75134c-0.22809,-0.52016 -0.45617,-1.0461 -0.69011,-1.2715c-0.22809,-0.2254 -0.45032,0.07513 -0.76029,0.45081c-0.29827,0.37567 -0.83631,0.37567 -0.98252,0.07513c-0.15206,-0.29476 0.07018,-1.19637 -0.45617,-0.90161c-0.53805,0.30054 -0.60823,0.60107 -0.91819,0.45081c-0.30411,-0.15027 -0.60238,-0.67621 -0.60238,-0.67621s0.75444,-0.36989 0.22224,-1.05188c-0.52635,-0.67621 -1.29249,-0.52594 -2.04692,-0.14449c-0.76029,0.36989 -0.69011,0.29476 -1.5966,0.52016s-1.36852,0.45081 -1.36852,0.45081s1.22231,-0.74556 1.74866,-1.20215c0.5322,-0.45081 1.22231,-0.67621 1.67263,-1.12701c0.45617,-0.45081 1.66678,0.2254 1.66678,0.2254s0.61408,-0.60107 0.61408,-0.2254s-0.15791,1.35242 0.29827,1.35242c0.46202,0 1.74866,-0.60107 1.22815,-0.75712c-0.5439,-0.15027 0.75444,0 1.28079,-0.37567c0.53805,-0.37567 1.13458,-0.37567 1.44454,-0.52016c0.30411,-0.15027 0.53805,-0.82648 1.0644,-0.82648c0.53805,0 0.76029,0.67621 0,1.12701s-0.83631,1.57782 -1.21646,1.87835c-0.37429,0.30054 -0.15206,0.67621 0.45617,0.60107c0.60823,-0.07513 1.13458,0.07513 1.67263,-0.07513s0.83631,0.15027 0.98252,0.37567c0.15206,0.2254 0.60823,-0.2254 0.60823,-0.2254s0.98837,-0.2254 1.29249,0.15027c0.30996,0.36989 0.53805,-0.2254 0.30996,-0.60107c-0.22809,-0.36989 -0.53805,-0.74556 -0.76029,-1.20215c-0.22809,-0.45081 -0.5322,-0.60107 -1.13458,-0.45081c-0.60823,0.15027 -0.76029,-0.15027 -1.14043,-0.36989c-0.38014,-0.23118 -0.69011,0.30054 -0.38014,-0.23118c0.30996,-0.52016 0.45617,-0.67621 0.68426,-1.12701c0.22809,-0.45081 1.22231,-1.27728 0.22809,-1.4969c-0.98837,-0.23118 -1.29833,-0.37567 -1.44454,-0.82648c-0.15206,-0.45081 -1.29249,-1.27728 -1.59075,-1.27728c-0.30996,0 -1.36267,0 -1.44454,-0.37567c-0.07603,-0.37567 -0.83631,-1.20215 -1.21646,-1.57782c-0.37429,-0.37567 -1.82469,-2.02862 -2.05277,-2.17889c-0.22809,-0.15027 -0.5322,-0.07513 -1.21646,0.82648c-0.67841,0.90739 -1.28664,1.05766 -1.82469,0.83226c-0.5322,-0.2254 -0.60823,-0.15027 -1.12873,-0.75134c-0.5439,-0.60107 0.52635,-0.67621 0.29827,-1.05188c-0.23393,-0.36989 -1.44454,-0.52594 -2.20483,-0.60107c-0.76029,-0.07513 -1.29249,-0.90161 -2.43292,-0.97674c-1.13458,-0.07513 -2.5031,0.15027 -2.88324,0.15027c-0.37429,0 -0.37429,0.52594 -0.52635,1.35242c-0.15791,0.82648 0.52635,1.05188 -0.15791,1.20215c-0.67841,0.15027 -0.98837,0.2254 -0.30411,0.52594c0.68426,0.30054 1.5966,1.50268 1.5966,1.50268s0,0.67621 -0.53805,1.05188c-0.52635,0.37567 -1.0644,0.75134 -1.36267,0.30632c-0.30996,-0.45658 -1.14043,-0.37567 -0.9065,0.07513c0.22224,0.45081 0.67841,0.67621 0.67841,1.12701c0,0.44503 0.68426,1.57204 0.22809,1.94771c-0.45617,0.37567 -0.98252,0.08091 -1.36267,0.15027s-0.76613,-0.60107 -0.45617,-0.75134c0.29827,-0.15027 -0.08188,-1.27728 -0.08188,-1.27728s-0.9065,1.27728 -0.83631,0.60107c0.08188,-0.67621 -0.37429,-0.75134 -0.37429,-1.27728c0,-0.52594 -0.46202,-0.75134 -1.13458,-0.60107c-0.69011,0.15027 -1.52057,-0.23118 -2.81891,-0.45658c-1.28664,-0.2254 -1.81884,-0.36989 -2.88324,-0.90161c-1.0644,-0.52594 -1.44454,-0.15027 -1.97674,-0.07513c-0.5322,0.07513 -0.30411,-1.05188 -0.98837,-1.19637c-0.67841,-0.15605 -1.05855,0.14449 -1.21061,-0.83226c-0.15206,-0.97096 0.22809,-1.20215 1.89487,-2.25403c1.67263,-1.05188 1.44454,-1.50268 2.73703,-1.65295c1.28664,-0.15027 1.90072,0.15027 1.90072,-0.2254s0.30411,-1.87835 0.30411,-1.12701s1.53227,0.79758 0.84216,1.32352c-0.67841,0.52594 -0.30411,0.60107 0.23393,0.60107c0.5322,0 1.51472,-0.52594 1.51472,-0.52594s1.21646,-0.52594 1.52057,-0.07513c0.30996,0.45081 0.30996,0.90161 0.84216,0.90161s1.66678,-0.60107 0.67841,-1.12701c-0.98252,-0.52594 -1.59075,-0.45081 -2.19898,-1.05188s-0.45617,-0.37567 -1.14043,-0.2254c-0.67841,0.15027 -0.67841,-0.2254 -0.91234,-0.2254s-0.60823,0.15027 -0.76029,-0.15027c-0.14621,-0.30054 0.08188,-0.37567 0.84801,-0.37567c0.75444,0 1.66678,0.2254 1.66678,0.2254s0.9065,-0.30054 1.13458,-0.37567c0.22809,-0.07513 1.44454,-0.2254 1.21646,-0.89583c-0.23393,-0.67621 -0.98837,-0.67621 -1.21646,-0.90161s0.45617,-0.52016 0.83631,-0.67621c0.38014,-0.15027 1.44454,0 1.44454,0s0.68426,0.07513 0.68426,-0.2254s-0.16375,-0.67621 0.29827,-0.45081s0,0.90161 0.68426,0.75134c0.67841,-0.15027 0.83631,0 1.21061,0.2254c0.38014,0.2254 -0.07603,1.12701 -0.45032,1.27728c-0.38014,0.14449 -0.98837,0.44503 -0.15206,0.52016c0.84216,0.08091 1.4387,0.08091 1.4387,0.08091s0.53805,-0.52594 0.76613,-0.97674c0.22224,-0.45081 0.60823,-0.15027 0.9065,0c0.30411,0.14449 1.44454,0.37567 0.38014,0.67621c-1.07025,0.30054 -1.29249,0.67621 -1.52057,1.05188c-0.22224,0.37567 -0.30996,0.60107 -1.29249,0.37567c-0.99422,-0.2254 -1.52057,-0.15027 -1.74866,0.2254c-0.22809,0.36989 -0.07603,1.57782 0.30996,1.42755c0.36845,-0.15027 0.75444,-0.15027 1.21061,-0.30054c0.45617,-0.15027 2.28086,0.15027 2.73118,0.07513c0.45617,-0.07513 1.22231,0.75134 1.45039,0.60107c0.22809,-0.15027 0.68426,0.30054 1.13458,0.60107c0.45617,0.30054 0.30411,-0.67621 1.13458,-0.07513c0.84216,0.60107 0.38014,0.60107 0.84216,0.60107c0.44447,0 1.4387,0.07513 1.4387,0.07513s0.08188,-0.74556 0.84216,-0.60107c0.76029,0.15027 1.43285,0.97674 1.35682,0.36989c-0.07018,-0.59529 0.07603,-1.0461 -0.52635,-1.4969c-0.60823,-0.45081 -1.59075,-0.75134 -1.74866,-0.97674c-0.15206,-0.2254 -0.30411,-0.52594 -0.07603,-0.67621c0.22809,-0.14449 1.29249,0.07513 1.89487,0.45658c0.60823,0.37567 1.14043,0.75134 1.5966,0.45081c0.45032,-0.30054 0.99422,-0.45081 1.21646,-0.67621c0.22224,-0.23118 0.76029,-0.90161 0.76029,-0.90161s-2.28671,-0.29476 -2.57912,-0.67621c-0.30996,-0.37567 -1.37436,-0.90161 -1.67848,-0.90161s-1.13458,0.52594 -1.4387,-0.2254s-0.30411,-1.65295 -0.61408,-1.72809c-0.29242,-0.07513 -3.49147,-0.52594 -3.94179,-0.75134c-0.45617,-0.2254 -2.28086,-0.75134 -2.96512,-1.12701s-1.67263,-0.90161 -2.27501,-0.90161c-0.60823,0 -3.11717,0.30054 -3.57334,0.2254c-0.45617,-0.07513 -1.82469,0.15027 -2.35689,0.2254c-0.5322,0.07513 0.68426,1.05188 -0.45032,1.27728c-1.14043,0.2254 -0.98837,0.37567 -0.76029,-0.75134c0.22224,-1.12701 -0.76613,-1.42755 -1.74866,-0.97674c-0.98837,0.45081 -2.58497,0.75134 -2.20483,1.27728c0.38014,0.52594 -0.07018,0.90739 0.68426,1.42755c0.76029,0.52594 1.07025,0.67621 2.04692,0.60107c0.99422,-0.07513 1.98259,0.14449 1.98259,0.14449s0,0.90739 -0.37429,1.05188c-0.38014,0.15027 -0.98837,0.15027 -1.14628,0.60107c-0.14621,0.45081 -0.9065,0.67621 -0.9065,0.45081s0.38014,-0.97674 -0.15206,-1.35242c-0.52635,-0.37567 -0.68426,-0.45081 -1.29249,-0.07513c-0.60823,0.37567 -0.67841,0.52594 -0.98837,-0.07513c-0.30411,-0.60107 -1.21646,-1.12701 -1.21646,-1.12701s-0.60823,-0.74556 -1.0644,-1.12123c-0.45032,-0.37567 -1.28664,-0.30054 -1.36852,0.07513c-0.07603,0.36989 0.15206,0.74556 0.45617,1.42755c0.30411,0.67621 0.60823,1.94771 0.07603,2.02862c-0.5322,0.07513 -0.60823,0.15027 -1.14043,0.30054c-0.5322,0.15027 -0.76029,-0.2254 -0.76029,-0.82648s-0.23393,-1.12701 -0.07603,-1.35242c0.15206,-0.2254 -0.60823,0.15605 -1.36852,0c-0.76029,-0.14449 -1.36267,0.30054 -0.60823,0.53172c0.76029,0.2254 0.91819,1.12123 0.22809,1.34664c-0.68426,0.2254 -3.26923,0 -4.10555,0s-2.04692,0.2254 -2.28086,-0.2254c-0.22809,-0.45081 0.69011,-0.74556 1.21646,-0.74556c0.5322,0 2.12295,0.06935 2.73118,-0.75134c0.60823,-0.82648 -0.76029,-0.97674 -1.36267,-0.97674c-0.60823,0 -1.07025,-0.2254 -1.74866,-0.89583c-0.69011,-0.67621 0.45617,-1.12701 0.30411,-1.42755c-0.15206,-0.30054 -0.91234,-0.08091 -1.59075,-0.08091c-0.68426,0 -1.74866,-0.52016 -1.74866,0.08091c0,0.60107 0.83631,2.32338 0.30411,1.94771c-0.5322,-0.36989 -0.45617,-0.90161 -0.83631,-1.35242c-0.38014,-0.45081 -0.98252,-0.37567 -1.74866,-0.30054c-0.75444,0.07513 -2.04692,0.30054 -2.42707,0.2254c-0.37429,-0.07513 -0.07603,-0.07513 -0.91234,-0.45081c-0.83047,-0.37567 -1.21646,-0.30054 -1.82469,-0.67621c-0.60238,-0.38723 -0.07018,-0.53172 -1.13458,-0.60685c-1.05855,-0.07513 -0.98252,0.52016 -2.04692,0.37567c-1.0644,-0.15027 -1.36852,0.07513 -2.43292,0c-1.0644,-0.07513 -1.59075,-0.15027 -1.74866,0.37567c-0.14621,0.52594 -0.45617,1.42755 -0.91234,1.42755c-0.45032,0 -0.98837,0.52594 0.45617,0.60107c1.44454,0.07513 0.61408,0.74556 1.90072,0.67621c1.29249,-0.07513 2.43292,-0.07513 2.73703,-0.67621c0.30411,-0.60107 0.5322,-0.60107 0.68426,-0.37567c0.14621,0.2254 1.28664,1.57204 1.28664,1.57204s0.76613,0.60107 1.07025,0.75134c0.29827,0.15027 -0.30411,0.82648 -0.91234,0.45081c-0.60823,-0.37567 -1.74866,-0.29476 -2.20483,-0.67043c-0.45617,-0.37567 -2.50894,-0.37567 -3.04114,-0.30054c-0.52635,0.07513 -1.44454,-0.2254 -1.74866,-0.2254c-0.29827,0 -1.29249,0.75134 -1.29249,0.75134s-0.38014,-0.60685 -0.60238,-0.90739c-0.22809,-0.30054 -0.60823,0.30054 -0.91234,0.37567c-0.30411,0.07513 -1.21646,-0.60107 -2.1288,-0.30054c-0.91234,0.30054 -0.60823,0.60107 -1.90072,0.52594s-1.59075,-0.30054 -2.04692,-0.2254c-0.46202,0.07513 -0.46202,0.07513 -0.46202,0.07513s0.07603,0.30054 -0.45032,0.60107c-0.5322,0.30054 -0.91819,0.67621 -1.29833,0.2254c-0.37429,-0.45081 -0.60238,-0.45081 -0.83047,-0.52594c-0.23393,-0.07513 -0.69011,-0.45081 -1.67263,-0.23118c-0.98837,0.23118 -2.50894,-0.29476 -2.80721,-0.29476c-0.23393,0 -1.83054,-0.08669 -2.87154,-0.19073c12.33418,-13.24673 29.96697,-21.61552 49.58235,-21.61552c12.4453,0 24.07768,3.40416 34.09591,9.23572c-0.68426,0.41613 -1.86563,0.34677 -2.26916,0.13293c-0.45617,-0.24852 -0.92404,-0.45081 -2.77797,-0.35255c-1.85393,0.10403 -3.88916,0.70511 -3.47977,1.30618c0.42108,0.60107 -0.83047,0.95363 -1.15213,0.65309c-0.32166,-0.30054 -1.80714,0.34677 -1.71357,0.95363c0.09357,0.60107 -0.22809,1.3004 -1.02346,1.15013c-0.78368,-0.15605 -1.33927,0.34677 -1.38606,0.84381c-0.04094,0.50282 -1.80714,0.84959 -1.94165,0.84959c-0.14036,0 -2.40952,-0.04624 -1.57906,0.54906c0.56729,0.39879 0.87725,0.15605 1.57906,0.30054c0.69595,0.15027 1.25155,1.25416 1.61999,1.40443c0.3626,0.15027 0.87725,0 1.10534,-0.30054c0.23393,-0.30054 0.55559,-1.35242 0.55559,-1.35242s0,0.99986 0.56729,1.20215c0.55559,0.20228 1.93581,-0.15027 2.3101,-0.09825c0.37429,0.04624 2.55573,0.35255 3.14641,0.64731c0.60823,0.30054 2.08201,0.50282 2.5031,1.15013c0.41523,0.65309 0.46787,2.90711 0.69595,3.15564c0.23393,0.24852 1.01761,-0.80336 1.19891,-1.05188c0.1813,-0.2543 1.15797,-0.10403 1.48548,0.24274c0.32751,0.35255 1.0644,1.20215 1.02346,1.5547c-0.05848,0.35833 -0.193,0.90161 -0.46787,0.70511c-0.28072,-0.1965 -0.74274,-0.14449 -0.56144,-0.54906c0.18715,-0.39879 0.28072,-1.25416 -0.08773,-1.25416c-0.37429,0 -0.69595,0 -0.69595,0s-0.7018,-0.20228 -1.16382,0.54906s-0.08773,1.50268 0.23393,1.50268s1.0761,0 1.0761,0.1965c0,0.20228 -0.79538,0.80336 -0.74859,1.15591c0.05264,0.35255 0.64332,1.54892 0.84216,1.80322c0.1813,0.24852 1.15213,0.49704 1.427,0.55484c0.28657,0.04624 -0.64917,0.09825 -0.40938,0.44503c0.23393,0.35255 0.59653,1.20215 1.10534,1.40443c0.50881,0.20228 1.9475,1.09811 2.12295,1.50268c0.18715,0.39879 1.29833,-0.30054 1.53227,-0.35255c0.23393,-0.04624 0.18715,1.05188 0.83631,1.10389c0.64332,0.04624 0.87725,-0.10403 1.43285,-0.55484s0.42108,-1.05188 0.46202,-1.50268c0.05264,-0.45081 0,-0.79758 0.60823,-0.65309c0.60823,0.15027 0.92404,-0.10403 0.87725,-0.60107c-0.04679,-0.50282 -0.55559,-1.10389 0.40938,-1.25416c0.97668,-0.15027 1.48548,-0.79758 2.08786,-0.79758c0.60238,0 2.27501,0.24852 2.45046,0c0.18715,-0.24852 0.97668,-1.40443 1.48548,-1.45067c0.39184,-0.04046 1.31003,-0.12137 2.25162,-0.24274c9.2521,10.89445 14.97764,24.7596 15.63265,39.9078c-0.69011,0.91895 -0.07018,1.76276 0.12282,2.35806c0.00585,0.17339 0.02924,0.33521 0.02924,0.5086c0,0.78602 -0.09357,1.5547 -0.12282,2.33494c-0.00585,0.01156 -0.00585,0.02312 -0.01755,0.03468zm-56.82262,-25.00234c-0.37429,0.07513 -0.98837,-0.30054 -0.98837,-0.82648s-0.5322,0.97674 -0.23393,1.42755c0.30996,0.45081 -0.60823,0.97674 -0.9065,0.97674s-0.5322,-0.67043 -0.45617,-1.34664c0.08188,-0.67621 -0.45032,-1.27728 -1.29249,-1.20215c-0.83631,0.08091 -1.21646,0.75134 -1.51472,0.97674c-0.30996,0.2254 -0.30996,1.4969 -0.23393,1.80322s0.07603,1.35819 -0.67841,1.27728c-0.69011,-0.07513 -0.53805,-1.34664 -0.46202,-1.80322c0.08188,-0.45081 -0.22809,-1.57782 0.08188,-2.17311c0.30996,-0.60107 1.21061,-0.82648 1.82469,-0.90161s1.89487,0.37567 2.12295,0.30054c0.23393,-0.08091 1.29833,-0.08091 1.82469,0c0.5322,0.06358 1.28664,1.41599 0.91234,1.49112zm1.36267,0.2254c0.23393,0.15027 1.81884,-0.2254 2.1288,0.15027c0.29827,0.37567 -0.31581,0.45081 -1.07025,0.75134c-0.75444,0.30054 -0.98837,0.2254 -1.29249,0.60107s-1.29249,0.52016 -1.74866,0.97096c-0.45617,0.45658 -1.26909,0.72244 -1.4387,0.37567c-0.23393,-0.45081 0.07603,-0.2254 0.14621,-0.45081c0.07603,-0.2254 1.43285,-0.74556 1.43285,-0.74556s1.61415,-1.80322 1.84223,-1.65295zm-6.07644,-2.6297c-0.22224,0.07513 -1.0644,-0.15027 -1.75451,-0.15027c-0.67841,0 -0.5322,-0.45081 -0.83631,-0.36989c-0.29827,0.07513 -0.98252,0.2254 -1.44454,0.45081c-0.45617,0.2254 -1.21646,0.17339 -1.21646,-0.23118c0,-0.60107 0.30411,-0.45081 1.29249,-0.82648c0.98837,-0.37567 2.05862,-1.42755 2.50894,-0.97674c0.45617,0.45081 1.29249,0.97674 1.82469,1.05188c0.53805,0.08091 -0.15206,0.97674 -0.37429,1.05188zm-7.77246,-23.29737c-0.46202,0.15027 -2.02938,0.80336 -1.87732,1.15013c0.05848,0.13293 0.45617,0.39879 1.11119,0.30054c0.66086,-0.10403 1.61415,-0.20228 2.07617,-0.24852c0.45617,-0.05202 0.55559,-0.80336 0.05264,-0.84959c-0.50881,-0.05202 -0.91234,-0.50282 -1.36267,-0.35255zm-5.62027,0.60107c-0.35675,0.15027 -1.42115,-0.24852 -1.97674,0.10403c-0.35675,0.21962 -0.15206,0.94785 0.40938,0.99408c0.55559,0.05202 1.51472,-0.34677 1.61415,-0.04624c0.10527,0.30054 0.45617,1.65295 1.36852,1.20215c0.91234,-0.45081 0.85971,-0.84959 1.11119,-0.90161c0.25148,-0.05202 -0.04679,-1.15013 -0.45617,-1.40443c-0.40354,-0.24852 -1.71942,-0.09825 -2.07032,0.05202zm-1.83054,-4.25375c0.09942,0.2543 -0.04679,0.45081 0.66086,0.54906c0.70765,0.10403 1.01177,0.20228 1.42115,0.20228c0.40354,0 0.24563,-0.65309 -0.10527,-1.09811c-0.35675,-0.45081 -0.25148,-0.39879 -1.16382,-0.65309c-0.91234,-0.24852 -1.82469,-0.24852 -2.43292,-0.20228c-0.60823,0.05202 -1.26909,-0.09825 -1.42115,0.60107c-0.07603,0.35833 0.40938,0.64731 1.01761,0.64731s1.92411,-0.29476 2.02353,-0.04624zm1.32173,2.75107c0.25148,0.54906 0.25148,0.29476 0.96498,0.35255c0.7018,0.05202 1.2574,-0.69933 1.31003,-0.94785c0.05264,-0.2543 -0.35675,-0.75134 -1.31588,-0.65309c-0.96498,0.09825 -3.90085,-0.15027 -4.30439,0.1965c-0.38599,0.33521 0,1.34664 -0.15206,1.45067c-0.15206,0.09825 0.05264,0.54906 0.45032,0.45081c0.40354,-0.09825 0.60823,-1.05188 0.91819,-1.05188c0.30411,0.00578 1.87732,-0.34677 2.1288,0.20228zm-9.52697,-2.05174c0.30411,0.24852 1.07025,0.04624 1.01177,-0.20228c-0.04679,-0.24852 0.30996,-1.25416 -0.29827,-1.3004c-0.60823,-0.04624 -1.46209,0.55484 -2.38028,0.85537c-0.59068,0.19073 -0.45617,0.75134 -0.05264,0.75134s1.42115,-0.35255 1.71942,-0.10403zm4.31609,0.90161c-0.50881,0.24852 -0.66671,0.39879 -1.11704,0.30054c-0.45617,-0.09825 -0.45617,-0.90161 -1.26909,-0.75134c-0.80707,0.15027 -0.95913,0.60107 -1.21061,0.80336s-0.81292,0.35255 -1.01177,0.24852c-0.19884,-0.09825 -1.36852,-0.74556 -1.36852,-0.74556s-2.43292,-0.10403 -2.53234,-0.40457c-0.09942,-0.30054 -0.50296,-0.79758 -1.61999,-0.69933s-3.04114,0.75134 -3.34526,0.75134c-0.30411,0 0.3626,0.60107 -0.05264,0.60107c-0.40354,0 -0.9065,-0.04624 -1.05855,0.39879c-0.10527,0.30632 0.45617,0.30054 1.10534,0.30054c0.65502,0 1.72526,0 2.02938,-0.15027c0.30411,-0.15027 1.82469,-0.50282 1.77205,-0.05202c-0.05264,0.45658 0.60823,1.15013 0.95913,1.05188c0.35675,-0.09825 1.07025,-0.75134 1.42115,-0.49704c0.35675,0.24852 0.40938,0.84381 0.76029,0.99986c0.35675,0.14449 1.32173,0.14449 1.7779,0c0.45032,-0.15605 1.71942,-0.15605 2.27501,-0.05202c0.55559,0.10403 2.18144,0.39879 2.33349,0.10403c0.15206,-0.30632 0.60823,-0.35255 0.65502,-0.65309s0.29827,-1.24838 0.29827,-1.24838s-0.29827,-0.55484 -0.80122,-0.30632zm25.64504,51.76744c-0.69595,0.12137 -0.5322,1.45645 0.30411,1.21371c0.83631,-0.24274 0.38599,-1.34086 -0.30411,-1.21371zm6.60864,-1.79166c-0.60823,-0.15027 -1.29249,0 -1.74866,0.07513c-0.45617,0.07513 -1.74866,1.20215 -1.74866,1.20215s0.83631,0.15027 1.36267,0.15027c0.53805,0 0.84216,0.29476 1.29249,0.52016c0.45617,0.23118 1.29249,-0.30054 1.59075,-0.30054c0.30996,0 0.69011,0.90161 0.76613,-0.07513c0.08188,-0.97674 -0.9065,-1.42177 -1.51472,-1.57204zm-21.1652,-48.67538c-0.25148,-0.60107 -1.51472,-0.80336 -1.7779,-0.20228c-0.22224,0.52594 2.02938,0.80336 1.7779,0.20228zm14.48637,44.99381c0.83631,-0.15027 0.37429,-0.83226 -0.30996,-0.75134c-0.69011,0.07513 -0.5322,0.90161 0.30996,0.75134zm10.10011,4.64098c-0.69595,0.12715 -0.53805,1.46223 0.29827,1.21949c0.84216,-0.24274 0.38599,-1.34086 -0.29827,-1.21949zm-9.19946,-2.23669c-0.52635,0.07513 -1.66678,-0.52016 -2.27501,-1.05188c-0.60823,-0.52594 -1.74866,-0.52594 -2.20483,-0.52594c-0.45032,0 -2.28086,0.52594 -2.28086,0.52594c-0.07603,0.75134 0.68426,0.52594 1.5966,0.52594s2.50894,-0.15027 2.80136,0.2254c0.30996,0.36989 1.67263,0.97096 2.05862,1.27728c0.37429,0.30054 1.59075,0.37567 1.66678,0.07513s-0.83047,-1.12701 -1.36267,-1.05188zm-9.0591,-47.94716c-0.76029,-0.05202 -1.72526,-0.05202 -2.33349,0c-0.60823,0.04624 -1.0644,-0.39879 -1.52057,-0.65309c-0.45032,-0.24852 -1.46794,-1.05188 -2.07032,-1.15013c-0.60823,-0.09825 -0.50296,-0.09825 -1.77205,-0.39879c-0.64332,-0.15605 -1.71942,-0.35255 -1.71942,-0.49704c0,-0.15027 -0.30411,0.69933 0.25148,0.95363c0.55559,0.24852 1.46794,0.69933 2.12295,0.94785c0.66671,0.24852 1.92411,0.30054 2.33349,0.80336c0.40354,0.49704 1.77205,0.90161 1.77205,0.90161l1.61999,0.15027c0,0 1.11704,-0.24852 2.28086,-0.15027c1.16382,0.09825 2.88324,0.24852 3.85407,0.20228c0.95328,-0.04624 1.10534,-0.35255 1.21646,-0.54906c0.09357,-0.20228 -1.7779,-0.60107 -2.23992,-0.54906c-0.44447,0.03468 -3.04114,0.03468 -3.79558,-0.01156zm2.8306,11.51287c-0.19884,0.2254 0.91819,0.54906 1.11704,0.24852c0.19884,-0.29476 -0.59653,-0.79758 -1.11704,-0.24852zm3.40374,1.0461c0.50296,-0.20228 0.25148,-0.80336 -0.46202,-0.60107c-0.80707,0.23118 -0.05264,0.80336 0.46202,0.60107z" fill="url(#svg_33)"/>
  <path transform="rotate(180 248.354 251.08)" fill-opacity="0.58" stroke="#000000" id="svg_90" d="m453.70808,135.22009c-137.50953,-129.68453 -271.83324,143.80804 -409.34276,14.12352l-1.36534,217.10577c137.50952,129.68454 269.55766,-139.2082 407.0672,-9.52369l3.6409,-221.7056z" stroke-width="6" fill="url(#svg_117)"/>
 </g>
 <defs>
  <radialGradient r="3.23817" cy="0.04376" cx="0.03906" spreadMethod="pad" id="svg_18">
   <stop offset="0" stop-opacity="0.99609" stop-color="#aad4ff"/>
   <stop offset="1" stop-opacity="0.99609" stop-color="#aa56ff"/>
  </radialGradient>
  <radialGradient r="1.22153" cy="0.99689" cx="1" spreadMethod="pad" id="svg_33">
   <stop offset="0" stop-color="#aad4ff"/>
   <stop offset="1" stop-opacity="0.99609" stop-color="#aaaaff"/>
  </radialGradient>
  <radialGradient gradientTransform="rotate(12,0.41796875,0.32110595703125) translate(0,0.006422119140625006) scale(1,0.98)" r="1.26906" cy="0.32111" cx="0.41797" spreadMethod="pad" id="svg_57">
   <stop offset="0.71094" stop-opacity="0.98828" stop-color="#333333"/>
   <stop offset="1" stop-opacity="0.32813" stop-color="#ffffff"/>
  </radialGradient>
  <linearGradient y2="0" x2="1" y1="0" x1="0" id="svg_117">
   <stop offset="0" stop-color="#none"/>
   <stop offset="0.49219" stop-opacity="0.98828" stop-color="#d4aaff"/>
   <stop offset="1" stop-opacity="0.99609" stop-color="#000000"/>
   <stop offset="NaN" stop-opacity="0" stop-color="0"/>
   <stop offset="NaN" stop-opacity="0" stop-color="0"/>
   <stop offset="NaN" stop-opacity="0" stop-color="0"/>
   <stop offset="NaN" stop-opacity="0" stop-color="0"/>
   <stop offset="NaN" stop-opacity="0" stop-color="0"/>
   <stop offset="NaN" stop-opacity="0" stop-color="0"/>
   <stop offset="NaN" stop-opacity="0" stop-color="0"/>
   <stop offset="NaN" stop-opacity="0" stop-color="0"/>
   <stop offset="NaN" stop-opacity="0" stop-color="0"/>
   <stop offset="NaN" stop-opacity="0" stop-color="0"/>
   <stop offset="NaN" stop-opacity="0" stop-color="0"/>
   <stop offset="NaN" stop-opacity="0" stop-color="0"/>
   <stop offset="NaN" stop-opacity="0" stop-color="0"/>
   <stop offset="NaN" stop-opacity="0" stop-color="0"/>
   <stop offset="NaN" stop-opacity="0" stop-color="0"/>
   <stop offset="NaN" stop-opacity="0" stop-color="0"/>
   <stop offset="NaN" stop-opacity="0" stop-color="0"/>
   <stop offset="NaN" stop-opacity="0" stop-color="0"/>
   <stop offset="NaN" stop-opacity="0" stop-color="0"/>
   <stop offset="NaN" stop-opacity="0" stop-color="0"/>
   <stop offset="NaN" stop-opacity="0" stop-color="0"/>
   <stop offset="NaN" stop-opacity="0" stop-color="0"/>
   <stop offset="NaN" stop-opacity="0" stop-color="0"/>
   <stop offset="NaN" stop-opacity="0" stop-color="0"/>
   <stop offset="NaN" stop-opacity="0" stop-color="0"/>
   <stop offset="NaN" stop-opacity="0" stop-color="0"/>
   <stop offset="NaN" stop-opacity="0" stop-color="0"/>
   <stop offset="NaN" stop-opacity="0" stop-color="0"/>
   <stop offset="NaN" stop-opacity="0" stop-color="0"/>
  </linearGradient>
  <linearGradient y2="0" x2="1" y1="0" x1="0" id="svg_119">
   <stop offset="0" stop-opacity="0.99609" stop-color="#ffffff"/>
   <stop offset="0.48438" stop-opacity="0.98438" stop-color="#aad4ff"/>
   <stop offset="1" stop-opacity="0.99609" stop-color="#ffffff"/>
   <stop offset="NaN" stop-opacity="0" stop-color="0"/>
   <stop offset="NaN" stop-opacity="0" stop-color="0"/>
   <stop offset="NaN" stop-opacity="0" stop-color="0"/>
   <stop offset="NaN" stop-opacity="0" stop-color="0"/>
   <stop offset="NaN" stop-opacity="0" stop-color="0"/>
   <stop offset="NaN" stop-opacity="0" stop-color="0"/>
   <stop offset="NaN" stop-opacity="0" stop-color="0"/>
   <stop offset="NaN" stop-opacity="0" stop-color="0"/>
   <stop offset="NaN" stop-opacity="0" stop-color="0"/>
   <stop offset="NaN" stop-opacity="0" stop-color="0"/>
   <stop offset="NaN" stop-opacity="0" stop-color="0"/>
   <stop offset="NaN" stop-opacity="0" stop-color="0"/>
   <stop offset="NaN" stop-opacity="0" stop-color="0"/>
   <stop offset="NaN" stop-opacity="0" stop-color="0"/>
   <stop offset="NaN" stop-opacity="0" stop-color="0"/>
   <stop offset="NaN" stop-opacity="0" stop-color="0"/>
   <stop offset="NaN" stop-opacity="0" stop-color="0"/>
   <stop offset="NaN" stop-opacity="0" stop-color="0"/>
   <stop offset="NaN" stop-opacity="0" stop-color="0"/>
   <stop offset="NaN" stop-opacity="0" stop-color="0"/>
   <stop offset="NaN" stop-opacity="0" stop-color="0"/>
   <stop offset="NaN" stop-opacity="0" stop-color="0"/>
   <stop offset="NaN" stop-opacity="0" stop-color="0"/>
  </linearGradient>
 </defs>
</svg>